<?xml version="1.0" standalone="no"?>
<!DOCTYPE svg PUBLIC "-//W3C//DTD SVG 20010904//EN"
 "http://www.w3.org/TR/2001/REC-SVG-20010904/DTD/svg10.dtd">
<svg version="1.0" xmlns="http://www.w3.org/2000/svg"
 width="1476.000000pt" height="968.000000pt" viewBox="0 0 1476.000000 968.000000"
 preserveAspectRatio="xMidYMid meet">

<g transform="translate(0.000000,968.000000) scale(0.100000,-0.100000)"
fill="#000000" stroke="none">
<path d="M5535 8160 c-27 -11 -97 -58 -155 -105 -116 -93 -164 -115 -253 -115
-32 0 -73 -6 -90 -14 -18 -8 -45 -17 -60 -20 -34 -8 -44 -30 -30 -67 10 -26 9
-28 -18 -34 -25 -6 -49 -30 -49 -50 0 -4 13 -19 29 -34 l30 -28 -105 -109
c-103 -107 -179 -207 -190 -251 -15 -57 19 -102 100 -132 47 -18 51 -21 46
-48 -8 -46 -6 -271 4 -365 8 -78 7 -88 -8 -88 -21 0 -21 -18 1 -42 16 -18 16
-28 -5 -176 -12 -86 -22 -185 -22 -220 0 -121 51 -308 121 -447 40 -78 41 -80
41 -190 -1 -176 -28 -252 -172 -475 -157 -242 -188 -336 -194 -590 -3 -91 -10
-183 -16 -205 -16 -59 -54 -145 -63 -145 -4 0 -20 26 -35 58 -25 53 -27 66
-27 195 0 75 -2 137 -4 137 -17 0 -68 -97 -85 -162 l-13 -52 -25 40 c-54 84
-141 130 -207 109 -29 -9 -26 -15 24 -52 48 -36 102 -100 91 -110 -3 -3 -15 2
-26 12 -26 24 -94 29 -157 12 l-53 -14 0 46 c-1 56 -19 109 -51 150 -30 38
-40 39 -37 4 1 -16 1 -41 -1 -58 l-2 -30 -16 30 c-28 53 -111 131 -110 102 0
-6 -1 -27 -1 -45 l-2 -33 -76 42 c-72 40 -77 41 -115 30 -31 -9 -53 -28 -97
-84 -87 -109 -170 -193 -247 -252 -131 -101 -181 -158 -218 -253 -21 -52 -22
-94 -2 -131 40 -77 157 -46 252 67 29 34 56 63 60 65 3 1 13 -29 20 -68 8 -38
21 -80 28 -91 14 -21 80 -44 129 -44 21 0 26 -5 26 -25 0 -30 -9 -31 -57 -5
-42 23 -97 26 -154 8 -45 -13 -51 -28 -11 -28 15 0 50 -11 77 -23 l50 -24 -79
-6 c-47 -4 -92 -14 -110 -25 -30 -17 -56 -65 -44 -78 4 -3 30 1 58 9 l51 15
-46 -49 c-63 -67 -139 -229 -108 -229 4 0 16 11 28 25 l20 26 1 -148 c1 -166
30 -333 83 -483 26 -74 28 -89 20 -145 -17 -121 -81 -270 -127 -294 -25 -13
-139 -164 -165 -217 -19 -40 -24 -43 -111 -70 -72 -23 -110 -29 -181 -28 -121
0 -204 26 -341 110 -60 37 -136 78 -169 92 -56 23 -68 24 -166 18 -232 -15
-479 47 -717 178 -135 75 -186 96 -233 96 -56 0 -95 -24 -121 -73 -21 -39 -26
-42 -52 -37 l-30 5 33 27 c43 37 25 36 -26 -1 -56 -41 -95 -122 -96 -198 0
-60 3 -67 106 -257 54 -100 114 -146 189 -146 18 0 47 -8 63 -18 69 -42 148
-64 235 -64 86 0 97 3 275 65 39 13 100 30 136 36 63 12 68 12 116 -13 54 -27
208 -149 239 -189 65 -84 350 -398 385 -424 57 -44 92 -49 164 -24 32 11 60
19 62 17 8 -8 -81 -75 -108 -81 -16 -4 -29 -11 -29 -17 0 -17 72 -3 137 26
l58 26 -29 -26 c-37 -32 -26 -43 20 -18 51 27 104 88 153 177 45 82 99 147
122 147 18 0 39 -53 32 -80 -8 -29 13 -25 60 14 45 35 87 61 87 51 0 -3 -9
-23 -20 -45 -22 -44 -24 -50 -12 -50 5 0 17 18 27 39 10 22 28 50 41 62 26 24
31 39 13 39 -18 0 -112 -50 -136 -72 -36 -34 -27 -12 31 75 70 106 97 133 140
141 19 4 38 12 42 18 11 17 -63 1 -120 -27 -54 -26 -54 -26 60 72 71 63 129
148 122 181 -3 12 -9 6 -21 -20 -25 -59 -62 -102 -156 -180 -98 -83 -104 -90
-131 -139 -28 -53 -13 -55 38 -4 25 25 47 44 49 42 2 -2 -17 -34 -42 -72 -24
-37 -46 -73 -48 -79 -2 -6 -8 -7 -13 -3 -5 5 -9 66 -9 135 l0 127 77 155 c42
85 84 180 93 210 23 79 29 221 12 305 l-14 70 0 -140 c0 -77 -5 -162 -12 -189
-16 -65 -60 -165 -111 -252 -39 -66 -62 -129 -74 -204 -5 -32 -11 -37 -49 -48
-45 -13 -96 -46 -85 -57 3 -4 26 5 51 19 48 29 77 33 77 12 0 -7 3 -28 6 -45
5 -24 3 -31 -8 -31 -25 0 -92 -81 -143 -173 -48 -85 -66 -106 -45 -53 18 48
10 62 -12 21 -11 -22 -28 -48 -37 -59 -14 -16 -102 -66 -116 -66 -3 0 13 19
36 43 36 36 40 42 23 45 -10 1 -46 -6 -78 -18 -75 -25 -100 -25 -143 1 -28 18
-340 360 -407 446 -23 30 -204 177 -231 187 -17 7 -13 11 30 30 53 24 144 100
134 111 -4 3 -42 -17 -84 -46 -72 -49 -82 -53 -139 -53 -82 -1 -123 21 -164
87 -23 37 -32 46 -32 31 0 -44 84 -133 127 -135 10 0 -18 -11 -62 -23 -44 -12
-113 -34 -153 -49 -40 -15 -77 -27 -81 -27 -4 0 -6 22 -3 50 3 36 0 57 -12 75
-12 19 -13 25 -4 25 18 0 88 58 88 73 0 8 -3 8 -12 -1 -9 -9 -16 -2 -29 27
-37 83 -129 157 -218 176 -33 7 -34 8 -16 21 10 8 38 14 63 14 26 0 41 4 37
10 -9 15 -89 12 -111 -5 -24 -18 -34 -19 -34 -2 0 24 -67 92 -118 120 -27 15
-72 29 -98 32 l-49 5 51 -13 c81 -21 158 -77 190 -138 12 -24 13 -37 5 -61
-15 -43 -13 -108 4 -141 14 -27 13 -28 -13 -38 -62 -24 -167 17 -237 92 -47
50 -65 98 -64 169 1 50 21 117 34 112 5 -2 14 14 21 35 18 52 47 73 99 73 52
0 91 -16 215 -86 243 -137 502 -203 735 -189 105 6 114 5 170 -19 32 -15 103
-54 157 -87 180 -112 319 -141 477 -100 46 12 97 29 114 37 29 16 30 16 24 -8
-6 -22 -6 -23 9 -3 9 11 26 40 39 65 31 60 101 154 159 212 54 55 96 139 122
241 l18 72 20 -85 c11 -47 22 -77 24 -68 6 29 -28 188 -58 278 -61 176 -100
404 -100 578 l0 95 34 32 c36 34 116 78 125 69 3 -3 -1 -9 -9 -14 -12 -7 -12
-12 -2 -22 15 -15 16 -28 2 -28 -5 0 -10 7 -10 15 0 33 -19 12 -25 -27 -9 -63
9 -157 45 -229 37 -72 157 -200 169 -180 5 7 13 -5 20 -31 20 -67 39 -96 63
-100 28 -4 50 -47 56 -110 4 -39 2 -48 -11 -48 -26 0 -40 -36 -29 -73 32 -107
39 -122 65 -141 24 -18 43 -21 115 -21 108 0 158 22 280 124 102 85 196 132
322 162 98 23 193 60 205 79 27 43 35 -108 9 -175 -25 -65 -27 -83 -11 -87 11
-2 5 -17 -24 -63 -72 -109 -153 -181 -267 -233 -105 -47 -266 -152 -314 -203
-32 -34 -52 -66 -63 -101 -27 -92 -17 -143 51 -243 52 -76 95 -205 70 -205
-20 0 -145 109 -190 166 -56 69 -103 104 -139 104 -60 0 -94 -37 -237 -256
-40 -62 -175 -199 -249 -252 -22 -16 -86 -49 -140 -72 -136 -57 -172 -105
-172 -231 0 -77 15 -114 63 -153 18 -14 42 -35 53 -45 35 -35 79 -51 135 -51
52 0 124 24 158 52 7 7 32 11 55 10 59 -3 135 43 192 116 25 31 75 116 112
190 37 73 79 147 94 165 l27 32 42 -40 c60 -57 83 -98 164 -284 63 -145 88
-191 166 -307 43 -62 119 -114 165 -113 l30 1 -33 12 c-46 16 -129 99 -184
183 -47 71 -53 83 -128 253 -23 52 -50 116 -61 141 -19 42 -88 122 -133 153
-18 12 -16 15 28 41 26 15 61 28 76 29 16 1 25 5 21 9 -12 13 -89 -9 -131 -37
-48 -32 -84 -83 -172 -249 -79 -150 -122 -207 -181 -241 -74 -43 -100 -43
-146 0 -32 28 -41 33 -41 18 0 -9 7 -25 16 -35 9 -10 13 -23 9 -29 -15 -24
-90 -50 -145 -50 -50 0 -59 3 -98 39 -38 35 -42 43 -42 87 0 43 23 141 46 198
5 14 3 18 -7 14 -20 -6 -59 -130 -62 -197 -2 -56 -3 -58 -23 -45 -42 28 -59
96 -44 176 13 68 51 125 98 145 167 72 219 103 313 192 77 72 117 121 194 236
129 195 170 215 253 123 89 -97 186 -188 225 -210 23 -13 87 -36 142 -52 200
-58 269 -113 331 -263 29 -71 32 -45 3 32 -27 73 -113 166 -182 198 -29 13
-94 36 -144 52 -80 25 -93 32 -93 50 0 12 -7 44 -15 71 l-14 48 24 -28 c14
-16 25 -34 25 -40 0 -21 56 -80 68 -72 21 13 34 85 23 119 l-11 31 22 -20 c13
-12 40 -28 60 -38 20 -9 40 -21 43 -26 8 -13 -1 -13 -28 0 -20 10 -20 9 1 -7
13 -10 38 -30 54 -46 40 -35 49 -35 15 1 -39 41 -33 48 10 13 33 -27 62 -34
47 -10 -3 5 -10 7 -15 4 -5 -4 -9 -1 -9 6 0 7 -12 25 -26 40 -14 15 -23 32
-20 38 11 16 23 13 46 -11 21 -22 64 -33 57 -14 -3 6 -10 10 -16 8 -7 -1 -11
3 -10 10 3 25 -1 39 -9 34 -5 -3 -16 10 -25 29 -9 19 -12 35 -7 35 6 0 10 -6
10 -14 0 -8 4 -18 10 -21 6 -4 7 1 4 12 -3 10 3 4 14 -13 11 -17 23 -40 26
-52 4 -12 11 -22 16 -22 5 0 7 -7 4 -15 -4 -8 -1 -15 5 -15 15 0 14 -33 -1
-49 -11 -11 -10 -13 5 -8 15 6 17 3 12 -16 -3 -12 -3 -17 2 -12 4 6 14 10 22
10 8 0 16 6 19 13 2 6 -2 12 -8 12 -8 0 -9 10 -5 29 3 17 2 32 -4 36 -8 4 -8
12 -1 26 8 14 6 25 -6 44 -9 14 -14 28 -11 31 3 3 14 -9 24 -28 29 -55 43 -89
33 -83 -15 9 -12 -11 4 -24 16 -13 18 -61 4 -78 -8 -10 -5 -13 11 -13 21 0 26
12 22 53 -1 9 2 17 8 17 11 0 26 -54 23 -85 l-2 -20 9 20 c7 18 10 15 29 -22
11 -24 16 -43 11 -43 -5 0 -6 -15 -3 -32 4 -25 3 -29 -5 -18 -12 18 -8 -24 16
-140 9 -41 19 -97 24 -123 4 -27 12 -54 17 -60 15 -20 21 -122 11 -194 -5 -38
-21 -106 -36 -153 l-28 -85 -5 55 c-6 54 -6 54 -18 26 -7 -16 -21 -41 -32 -56
-11 -16 -20 -31 -20 -34 0 -13 23 -5 36 12 13 16 13 16 14 0 0 -12 8 -18 24
-18 20 0 27 10 50 80 15 45 29 101 33 125 l6 45 88 -85 c49 -47 92 -85 98 -85
5 0 31 -18 57 -40 l49 -40 118 0 c92 0 118 3 114 13 -2 7 -12 47 -22 90 -25
111 -17 191 27 302 32 78 83 241 102 328 l7 28 31 -22 c39 -28 177 -89 202
-89 13 0 16 -5 11 -18 -95 -237 -126 -359 -129 -514 l-2 -118 113 0 114 0 6
30 c3 17 9 33 14 35 4 3 4 -9 -1 -26 -8 -28 -7 -31 10 -26 11 3 20 1 20 -4 0
-12 267 -12 274 0 3 4 38 7 78 5 66 -4 71 -3 54 11 -19 14 -19 15 -1 15 10 0
27 7 37 17 16 14 18 14 18 1 0 -9 -7 -18 -15 -22 -27 -10 -5 -34 31 -34 l36 0
-21 22 c-21 22 -21 23 -4 99 16 67 22 79 48 93 17 9 41 14 55 13 24 -4 25 -7
22 -63 -2 -32 -12 -83 -22 -112 -18 -52 -18 -54 -1 -54 22 0 38 55 71 251 21
118 21 135 10 296 -16 220 -9 415 19 507 30 100 88 365 107 486 8 58 20 191
24 295 5 105 16 255 24 335 18 170 20 358 5 485 -5 50 -14 171 -19 270 l-9
180 43 40 c46 44 156 115 441 287 99 59 223 136 275 171 100 65 260 210 260
234 0 8 15 35 33 61 30 44 32 45 36 22 5 -36 -18 -364 -35 -505 -43 -352 -122
-711 -213 -969 -32 -90 -31 -118 4 -99 9 6 65 57 123 115 148 144 160 153 270
190 94 31 102 32 262 32 153 -1 260 -9 435 -35 187 -27 293 -66 370 -133 22
-20 47 -38 56 -41 9 -3 24 -22 33 -43 l16 -37 -5 45 c-2 25 -6 52 -9 60 -3 9
21 36 62 71 190 160 314 235 487 296 73 25 92 28 225 28 188 0 230 -13 316
-99 34 -34 69 -77 79 -96 44 -88 141 -240 152 -240 22 0 15 34 -43 197 -125
356 -177 518 -225 702 -27 106 -65 240 -83 297 -19 57 -30 104 -26 104 4 0 46
-35 94 -77 116 -106 175 -150 345 -261 80 -52 148 -99 149 -104 2 -4 9 -8 15
-8 29 -1 89 -71 133 -155 25 -49 67 -125 91 -168 l45 -78 -46 -242 c-26 -133
-49 -251 -53 -262 -3 -13 -2 -17 5 -10 16 17 70 262 93 422 l11 82 63 -52 c34
-29 69 -56 78 -62 9 -6 17 -32 21 -70 3 -33 10 -85 15 -116 18 -106 23 -332
11 -489 -19 -256 -29 -714 -18 -839 5 -63 20 -173 34 -244 28 -150 32 -326 10
-434 -26 -126 -28 -196 -11 -345 9 -78 18 -167 21 -195 4 -38 10 -53 20 -53
16 0 15 52 -7 218 -15 119 -10 268 12 392 25 139 21 217 -23 470 l-30 175 6
360 c4 198 9 468 12 600 4 179 2 269 -9 355 -14 112 -14 116 7 152 24 43 50
49 89 18 28 -23 124 -36 180 -26 22 4 60 29 108 71 62 54 77 73 91 117 36 114
2 182 -144 287 -45 32 -46 33 -28 51 33 33 62 146 67 261 7 129 -3 179 -63
315 -50 115 -77 213 -94 346 -7 49 -16 86 -20 83 -19 -12 -35 74 -34 190 0 94
7 152 32 270 58 280 61 384 13 603 -17 80 -14 104 10 61 7 -13 14 -18 20 -12
14 14 -23 122 -60 176 -24 35 -28 47 -16 47 8 0 15 4 15 9 0 14 -70 100 -90
111 -27 14 -86 3 -137 -26 -45 -26 -46 -25 -67 34 l-14 40 97 -5 98 -6 21 34
c11 19 27 57 33 84 7 28 16 54 19 58 4 4 30 -23 58 -60 53 -72 80 -98 122
-120 44 -23 57 -16 85 42 25 50 26 58 16 105 -23 107 -77 184 -203 286 -41 34
-120 120 -188 204 -65 80 -128 151 -139 158 -44 26 -111 8 -173 -47 -44 -38
-49 -39 -42 -1 7 31 -15 120 -28 120 -4 0 -8 -12 -8 -27 0 -46 -19 -101 -47
-134 l-26 -31 -22 59 c-26 68 -41 71 -37 8 3 -35 -5 -62 -37 -132 -30 -67 -41
-103 -42 -146 -1 -31 -5 -57 -9 -57 -4 0 -39 15 -76 33 -61 28 -79 32 -154 32
-83 -1 -113 -9 -211 -62 -15 -8 -14 77 0 92 13 13 13 30 2 132 -21 199 -66
338 -149 461 -46 67 -92 109 -128 118 -15 4 -23 12 -20 19 7 19 -15 87 -36
111 -10 11 -18 25 -18 31 0 5 -9 18 -21 29 -12 10 -32 40 -45 65 -25 49 -87
100 -234 192 -254 157 -632 183 -971 67 -237 -82 -421 -200 -635 -407 -227
-219 -356 -445 -384 -672 -6 -47 -15 -110 -21 -140 -18 -105 -9 -137 24 -83 9
15 31 44 49 65 l33 38 -3 -223 c-3 -199 -2 -226 13 -238 14 -12 19 -10 39 15
l23 29 13 -89 c15 -107 34 -141 25 -45 -12 130 -16 151 -32 157 -9 4 -21 -1
-28 -11 -12 -15 -14 -12 -21 26 -4 24 -7 123 -6 220 1 98 -2 179 -7 182 -16
10 -35 -3 -65 -44 -16 -22 -32 -38 -34 -35 -3 2 1 11 7 19 7 8 10 20 6 26 -4
6 -2 32 4 58 6 26 13 67 15 92 2 31 7 44 16 42 11 -3 11 0 0 12 -9 11 -9 20
-2 29 6 6 11 17 11 22 2 23 25 83 53 139 26 51 102 172 118 186 3 3 25 30 49
60 111 138 372 364 489 424 30 16 32 16 32 -2 0 -10 -30 -42 -69 -75 -38 -31
-109 -100 -158 -153 -48 -53 -108 -115 -133 -138 -105 -97 -220 -214 -254
-259 -38 -51 -51 -89 -15 -43 11 14 24 24 29 21 4 -3 7 2 6 10 -1 15 154 178
162 170 2 -2 -14 -28 -36 -57 -55 -74 -162 -262 -184 -323 l-18 -50 26 30 c74
84 86 95 104 95 23 0 27 -17 6 -22 -23 -5 -96 -97 -89 -113 4 -13 8 -13 21 -3
14 11 15 10 8 -7 -4 -11 -17 -58 -28 -105 -26 -111 -21 -292 13 -420 24 -91
26 -147 19 -500 -4 -184 4 -243 50 -374 11 -33 18 -61 16 -64 -3 -2 -17 5 -32
17 -36 28 -84 40 -209 51 -120 11 -156 25 -178 73 -35 72 -39 129 -23 258 29
223 16 313 -65 431 l-39 57 16 63 c20 77 15 278 -10 379 -22 90 -81 252 -117
319 -38 70 -107 149 -136 155 -32 6 -61 22 -135 78 -74 55 -133 125 -225 263
-147 219 -280 318 -464 344 -55 8 -93 6 -187 -8 -64 -10 -141 -17 -171 -14
-42 3 -52 1 -49 -9 3 -8 20 -15 39 -16 19 -1 41 -3 49 -4 8 -1 36 2 63 6 35 5
47 4 47 -5 0 -9 6 -8 19 4 12 11 44 18 97 22 210 17 394 -104 544 -357 64
-108 182 -233 277 -294 35 -22 63 -45 63 -52 0 -7 9 -17 19 -23 27 -14 54 -71
41 -84 -7 -7 -14 -6 -22 2 -16 16 -28 15 -28 -2 0 -8 6 -14 13 -13 42 1 56 -5
66 -30 6 -16 15 -38 21 -51 11 -26 11 -26 -60 21 -25 17 -53 39 -63 51 -10 12
-15 14 -11 6 10 -19 -60 42 -108 94 -26 29 -38 36 -38 24 0 -9 29 -46 65 -82
44 -42 61 -66 53 -70 -7 -3 -3 -3 10 0 14 3 24 0 28 -9 3 -9 19 -21 35 -27 16
-7 29 -16 29 -21 0 -4 16 -13 35 -20 19 -7 35 -17 35 -21 0 -15 -30 -20 -45
-8 -9 7 -15 8 -15 2 0 -5 14 -15 30 -21 38 -13 42 -44 5 -35 -14 3 -25 2 -25
-4 0 -13 27 -23 45 -16 8 4 15 2 15 -4 0 -6 -6 -13 -12 -15 -10 -4 -10 -6 0
-6 6 -1 12 -10 12 -21 0 -11 -6 -20 -12 -20 -9 0 -8 -3 2 -10 8 -5 12 -12 8
-15 -3 -4 -15 2 -25 12 -22 21 -53 29 -53 13 0 -7 -8 -9 -19 -5 -11 3 -22 2
-25 -4 -8 -12 20 -22 39 -15 8 4 30 -5 48 -19 24 -18 32 -32 31 -53 -2 -49 -4
-54 -19 -48 -9 4 -15 0 -15 -9 0 -8 7 -17 15 -21 18 -6 21 -91 4 -101 -6 -4
-26 -7 -44 -8 -19 0 -31 -5 -29 -9 3 -5 20 -6 38 -3 26 5 33 3 33 -9 0 -9 -6
-16 -13 -16 -21 0 -94 31 -94 40 0 5 -10 6 -22 2 -15 -4 -19 -2 -14 7 6 8 2
11 -10 9 -14 -2 -20 4 -22 21 -3 21 -1 23 22 17 16 -4 26 -2 26 4 0 7 -14 10
-32 8 -26 -2 -32 -7 -30 -22 4 -19 3 -19 -25 -1 -15 10 -42 28 -60 41 -17 13
-35 24 -39 24 -22 0 -186 156 -243 230 -14 19 -35 45 -46 58 -53 62 -135 199
-135 225 0 20 -4 26 -12 21 -7 -4 -10 -4 -6 1 4 4 3 14 -4 22 -8 10 -8 17 0
25 17 17 15 33 -2 19 -11 -9 -16 -6 -24 19 -9 24 -8 30 3 30 8 0 11 -7 8 -20
-3 -11 0 -20 6 -20 6 0 11 5 11 12 0 7 15 -8 32 -33 42 -57 58 -73 65 -66 3 4
2 14 -2 24 -5 10 -7 22 -6 26 1 5 -3 6 -8 3 -5 -3 -12 1 -15 10 -9 22 -8 26 6
18 7 -4 8 -3 4 5 -4 6 -11 9 -16 6 -10 -6 -64 64 -55 73 4 4 13 -2 21 -12 14
-19 14 -19 14 3 0 18 -5 22 -24 19 -24 -3 -56 17 -56 34 0 7 5 6 13 0 9 -8 16
-6 24 7 10 16 8 22 -10 37 -12 10 -16 12 -9 4 19 -22 14 -35 -13 -36 -14 -1
-25 2 -25 7 0 5 6 9 13 9 9 0 9 2 -1 8 -10 7 -8 15 9 37 l22 28 -21 -12 c-12
-6 -22 -17 -23 -24 0 -7 -4 -2 -9 11 -5 12 -7 30 -3 40 5 14 3 13 -10 -3 -9
-11 -17 -26 -17 -32 0 -19 -15 -16 -36 9 -10 12 -13 18 -6 14 7 -4 20 0 30 10
16 17 16 18 0 11 -18 -6 -25 7 -9 17 5 3 11 15 14 26 4 15 0 19 -16 17 -13 -1
-25 7 -34 23 -7 14 -13 19 -13 12 0 -7 -5 -10 -11 -6 -6 3 -9 15 -6 25 3 12 0
19 -10 19 -8 0 -20 14 -26 30 -8 21 -18 30 -32 29 -17 -1 -17 -2 -2 -6 9 -2
17 -8 17 -13 0 -5 -7 -7 -15 -4 -11 5 -13 2 -9 -10 5 -13 9 -14 20 -5 11 9 14
7 14 -9 0 -11 7 -23 16 -26 9 -4 14 -13 10 -21 -3 -9 0 -15 9 -15 21 0 48 -42
33 -51 -9 -6 -8 -11 1 -23 24 -29 -5 -17 -34 14 -26 27 -24 45 2 19 6 -6 13
-7 16 -1 10 15 -55 56 -88 55 -16 -1 -24 1 -17 3 17 8 15 24 -4 24 -9 0 -24
10 -35 23 -16 19 -18 20 -19 4 0 -10 5 -15 10 -12 6 3 10 1 10 -4 0 -27 -35
-4 -43 27 -4 19 -2 22 14 17 11 -4 19 -2 19 5 0 15 25 7 26 -8 1 -7 3 -15 4
-19 1 -5 2 -11 1 -15 0 -5 6 -8 14 -8 9 0 12 6 9 15 -4 8 -11 15 -18 15 -7 0
-6 3 2 9 11 7 11 11 -1 23 -11 10 -31 14 -70 11 -47 -2 -55 0 -53 14 0 10 -7
19 -19 21 -11 2 -16 0 -10 -5 17 -14 16 -53 -1 -53 -12 0 -15 6 -11 21 4 15 1
19 -11 17 -9 -2 -18 -12 -20 -22 -3 -11 0 -16 7 -12 7 5 11 -5 11 -29 0 -26
-4 -34 -12 -30 -14 7 8 -11 39 -33 21 -15 10 -12 -30 8 -23 12 -27 18 -22 42
4 16 2 28 -3 28 -14 0 5 70 24 91 8 9 12 24 8 34 -4 10 -1 21 7 27 11 8 10 8
-5 4 -13 -5 -17 -2 -13 8 4 10 1 13 -7 10 -14 -5 -18 -34 -4 -34 14 0 8 -14
-22 -50 -19 -22 -28 -28 -24 -15 4 11 11 25 16 31 10 13 0 44 -14 44 -5 0 -6
-5 -3 -11 4 -6 -2 -17 -12 -24 -27 -19 -48 -92 -32 -111 7 -9 8 -14 1 -14 -13
0 -26 36 -17 50 3 5 2 10 -3 10 -5 0 -15 21 -21 46 -7 28 -16 44 -24 41 -7 -2
-12 -11 -12 -19 0 -9 -8 -25 -18 -35 -9 -11 -17 -25 -17 -32 0 -7 -5 -9 -10
-6 -6 4 -8 10 -6 14 7 11 -52 63 -64 56 -5 -3 -10 -24 -10 -46 0 -22 -7 -47
-15 -55 -12 -13 -15 -12 -25 6 -6 11 -17 20 -26 20 -8 0 -20 11 -26 25 -14 32
-31 32 -48 0 -12 -23 -15 -24 -30 -10 -28 26 -46 18 -21 -9 14 -15 20 -30 16
-37 -5 -7 -4 -10 3 -5 6 3 13 2 17 -4 3 -5 0 -10 -7 -10 -10 0 -9 -3 2 -10 8
-5 11 -12 7 -16 -3 -4 2 -15 14 -25 14 -12 16 -18 7 -21 -14 -5 -38 15 -38 32
0 6 -4 8 -10 5 -13 -8 -52 13 -45 24 3 5 -7 12 -22 16 -19 4 -23 9 -14 14 17
11 -2 23 -22 15 -13 -5 -62 19 -77 37 -3 3 -15 11 -27 18 -13 6 -23 15 -23 20
0 20 109 50 202 55 53 2 107 10 119 17 20 10 25 9 41 -11 10 -13 21 -20 25
-16 4 3 -2 12 -12 20 -18 13 -18 14 1 24 14 9 15 12 4 13 -8 1 -21 0 -29 -1
-15 -2 20 30 77 69 18 13 47 36 64 51 17 16 61 39 99 51 l67 22 39 -20 c21
-11 60 -32 87 -47 34 -18 63 -26 95 -25 l46 1 -65 22 c-36 12 -87 37 -114 54
-59 38 -106 41 -181 12z m-268 -345 c8 -9 13 -18 11 -21 -3 -2 -13 5 -23 16
-21 23 -11 27 12 5z m-264 -59 c15 -19 27 -40 27 -46 0 -20 -100 16 -116 41
-8 14 22 39 45 39 9 0 28 -16 44 -34z m597 -26 c0 -5 -2 -10 -4 -10 -3 0 -8 5
-11 10 -3 6 -1 10 4 10 6 0 11 -4 11 -10z m200 -10 c8 -5 11 -10 5 -10 -5 0
-17 5 -25 10 -8 5 -10 10 -5 10 6 0 17 -5 25 -10z m-806 -48 c2 -4 -11 -23
-30 -41 -19 -19 -34 -40 -34 -49 0 -8 -13 -41 -30 -73 -29 -57 -57 -148 -64
-209 -5 -42 -9 -44 -39 -20 -33 26 -50 84 -38 128 17 57 71 141 134 207 57 59
88 77 101 57z m877 -20 c57 -37 145 -135 173 -192 11 -25 23 -47 26 -50 3 -3
6 -12 8 -20 2 -8 16 -44 32 -80 54 -123 63 -209 55 -535 -7 -304 7 -582 40
-752 14 -74 14 -75 -12 -126 -14 -29 -39 -71 -55 -94 -16 -24 -24 -43 -19 -43
16 0 63 56 88 103 l21 42 12 -29 c11 -31 14 -105 12 -323 l-2 -133 -32 -31
c-67 -64 -215 -128 -336 -146 l-63 -10 -44 56 c-24 31 -61 74 -84 95 l-41 40
89 46 c104 55 179 104 239 156 70 59 41 50 -47 -15 -97 -72 -360 -205 -451
-227 -74 -19 -173 -13 -227 13 -86 40 -321 342 -384 492 -51 122 -83 264 -83
376 0 105 30 343 45 360 5 5 9 19 9 31 0 25 49 71 86 80 13 4 37 1 53 -6 l30
-12 -20 -31 c-23 -39 -24 -78 -3 -124 22 -44 54 -65 96 -61 32 3 33 4 32 49
-3 77 -66 179 -134 214 -34 18 -86 9 -128 -21 -13 -9 -25 -14 -26 -13 -6 9
-26 220 -26 282 l0 67 38 0 c66 0 216 -50 239 -79 7 -9 24 -51 38 -93 27 -80
42 -103 30 -45 -18 79 -114 297 -129 291 -6 -2 -19 1 -29 8 -12 9 -39 12 -88
8 -39 -3 -72 -4 -74 -1 -15 14 138 236 289 419 l61 74 145 -7 c190 -9 254 -9
320 -3 30 2 65 1 78 -4 13 -4 34 -5 48 -2 20 5 22 9 13 20 -22 26 44 16 92
-14z m211 -127 c3 -13 1 -22 -3 -19 -9 5 -13 44 -5 44 2 0 6 -11 8 -25z m19
-82 c13 -16 12 -17 -3 -4 -10 7 -18 15 -18 17 0 8 8 3 21 -13z m-1351 -159 c8
-10 26 -28 40 -40 29 -26 21 -42 -13 -27 -12 6 -39 17 -59 26 -58 25 -63 78
-15 150 l22 34 5 -62 c3 -34 12 -70 20 -81z m4010 73 c30 -9 66 -20 80 -25 14
-5 28 -10 32 -11 4 -1 36 -14 70 -28 35 -14 78 -31 95 -37 18 -7 45 -23 59
-37 25 -23 26 -27 21 -104 -3 -44 -9 -90 -13 -102 -3 -13 -2 -23 3 -23 13 0
43 78 43 110 0 39 13 13 22 -43 27 -180 39 -308 33 -361 -5 -51 -35 -160 -60
-218 -16 -40 25 -12 71 47 15 19 15 19 8 -5 -3 -14 -27 -69 -51 -123 -35 -76
-42 -102 -33 -110 8 -9 20 -3 47 26 41 46 40 39 -18 -102 -43 -104 -46 -119
-24 -127 22 -9 79 31 128 89 47 55 107 171 107 206 0 12 6 21 14 21 7 0 29 3
47 7 29 5 32 4 22 -8 -23 -29 -61 -163 -54 -194 1 -3 19 4 41 15 77 39 150 18
150 -44 0 -30 -27 -79 -54 -98 -6 -4 -7 -11 -2 -15 4 -4 23 9 42 29 28 31 34
45 34 82 0 27 -6 51 -15 60 -28 27 -101 33 -157 11 -15 -6 -15 -3 -3 39 24 79
52 133 79 152 30 21 131 96 161 119 10 8 25 15 31 15 16 0 78 -125 69 -139 -3
-6 -1 -11 4 -11 6 0 11 -7 11 -15 0 -8 5 -15 10 -15 22 0 -27 154 -58 185
l-24 24 20 26 20 25 41 -48 c48 -58 61 -89 61 -147 0 -54 -27 -190 -46 -232
-8 -17 -14 -37 -14 -45 0 -7 -9 -24 -20 -38 -11 -14 -20 -30 -20 -35 0 -18
-84 -113 -132 -150 -54 -42 -75 -42 -141 1 -22 14 -40 24 -40 22 -1 -2 -7 -13
-14 -24 -6 -12 -17 -59 -23 -105 -15 -111 -53 -254 -86 -315 -32 -61 -55 -92
-133 -174 -33 -36 -61 -68 -61 -72 -1 -38 115 64 176 154 79 116 116 236 130
422 l7 87 26 -25 c18 -17 44 -28 75 -32 l48 -7 -6 -36 c-6 -39 -173 -687 -183
-711 -3 -8 -7 -22 -8 -30 -1 -8 -11 -58 -23 -110 -40 -181 -52 -287 -52 -447
0 -106 4 -153 10 -143 5 8 10 40 10 70 0 76 12 190 19 190 3 0 29 -68 56 -151
49 -148 50 -155 49 -263 -2 -126 -25 -234 -73 -340 -37 -81 -68 -123 -181
-241 -107 -112 -176 -223 -220 -354 -19 -56 -37 -101 -40 -101 -3 0 -14 17
-25 38 -77 147 -142 221 -445 507 -201 190 -259 285 -310 515 -25 108 -25 159
0 355 10 87 17 162 14 167 -8 12 -1 10 47 -12 49 -22 101 -25 168 -9 50 11
214 80 219 91 2 5 8 8 13 8 19 0 185 110 224 148 129 127 145 171 19 53 -143
-134 -436 -281 -560 -281 -92 0 -241 91 -346 211 -72 83 -160 219 -204 317
-20 42 -51 109 -69 147 -97 200 -120 334 -110 622 l7 207 25 -52 c13 -28 41
-66 61 -83 34 -28 42 -30 93 -26 30 3 75 15 98 27 50 25 131 97 131 115 0 38
-138 121 -248 149 -61 16 -179 13 -152 -4 8 -5 9 -13 3 -24 -7 -13 -15 4 -32
71 -29 113 -40 251 -20 264 23 15 112 9 141 -9 77 -48 174 -118 215 -156 41
-38 49 -53 69 -126 13 -46 21 -87 18 -92 -3 -4 0 -8 5 -8 6 0 11 8 11 18 0 31
-79 324 -99 366 -10 23 -21 49 -25 59 -3 10 -12 17 -19 14 -6 -2 -17 5 -24 17
-7 12 -12 15 -13 7 0 -7 -18 5 -40 27 -78 81 -124 91 -210 47 -24 -13 -32 -14
-28 -4 3 8 14 47 24 88 21 81 37 102 126 163 150 102 305 158 563 204 108 20
155 23 280 20 94 -2 171 -9 205 -19z m-3883 -213 c-3 -3 -12 -4 -19 -1 -8 3
-5 6 6 6 11 1 17 -2 13 -5z m5800 -41 c-3 -10 -5 -4 -5 12 0 17 2 24 5 18 2
-7 2 -21 0 -30z m-5693 -22 c4 -5 -3 -7 -14 -4 -23 6 -26 13 -6 13 8 0 17 -4
20 -9z m2019 -21 c3 -11 1 -18 -4 -14 -5 3 -9 12 -9 20 0 20 7 17 13 -6z
m3557 -50 c-7 -4 -9 -13 -5 -19 5 -9 10 -9 20 -1 10 8 15 8 20 0 5 -8 11 -8
21 1 8 7 14 7 14 1 0 -14 -26 -23 -47 -16 -17 5 -17 5 -1 -6 17 -10 17 -13 2
-35 -9 -14 -24 -25 -33 -25 -14 1 -14 2 2 11 9 5 17 15 17 20 0 6 -4 8 -9 4
-5 -3 -13 0 -17 6 -4 8 -3 9 4 5 7 -4 12 -1 12 8 0 8 -4 17 -9 21 -8 4 -8 30
-1 65 0 3 5 -3 11 -14 9 -14 8 -20 -1 -26z m90 30 c0 -5 -4 -10 -10 -10 -5 0
-10 5 -10 10 0 6 5 10 10 10 6 0 10 -4 10 -10z m-4433 -8 c6 -4 14 -19 18 -34
4 -17 15 -28 28 -30 21 -3 22 -9 25 -118 1 -63 7 -119 12 -124 12 -12 29 34
39 104 l7 55 33 -35 c19 -19 40 -44 47 -56 15 -22 26 -86 14 -79 -4 3 -13 -23
-19 -58 -7 -34 -21 -91 -31 -127 -47 -165 -50 -310 -10 -430 25 -73 100 -235
137 -292 58 -94 86 -212 81 -345 -4 -97 -8 -116 -40 -188 -77 -170 -90 -275
-49 -384 28 -72 76 -125 149 -161 72 -36 244 -39 324 -5 35 14 -2 -52 -63
-114 -76 -76 -140 -108 -247 -121 -78 -10 -108 -7 -167 16 l-20 7 20 -22 c51
-58 156 -80 269 -56 37 8 74 19 81 25 6 5 15 7 18 3 4 -3 7 -1 7 5 0 7 5 12
11 12 25 0 -61 -130 -136 -206 -87 -88 -138 -114 -222 -114 -72 0 -175 62
-219 132 -75 118 -115 412 -85 626 35 245 45 392 46 619 0 133 1 240 3 239 1
-2 14 -43 28 -92 28 -93 44 -125 44 -84 -1 41 -25 129 -64 232 -20 54 -36 115
-36 138 0 23 -4 39 -9 36 -10 -7 -27 119 -46 357 -13 172 -11 677 4 677 3 0
11 -4 18 -8z m4423 -16 c0 -2 -9 -6 -20 -9 -11 -3 -20 -1 -20 4 0 5 9 9 20 9
11 0 20 -2 20 -4z m-120 -92 c0 -14 -4 -23 -10 -19 -5 3 -10 1 -10 -6 0 -7 -2
-10 -5 -7 -6 6 12 58 20 58 3 0 5 -12 5 -26z m-2963 -116 c-3 -8 -6 -5 -6 6
-1 11 2 17 5 13 3 -3 4 -12 1 -19z m2823 -49 l76 -36 12 -129 c14 -154 63
-351 126 -505 6 -13 -2 -15 -52 -11 -46 3 -68 0 -100 -17 -22 -11 -43 -25 -47
-31 -11 -18 -22 -10 -29 20 -20 100 -163 411 -276 600 -34 56 -59 104 -57 106
3 3 27 14 53 25 38 15 69 18 134 17 74 -3 95 -8 160 -39z m-3859 -50 c19 -17
46 -37 60 -44 47 -25 47 -98 -2 -295 -23 -89 -22 -176 1 -252 12 -41 36 -54
26 -15 -7 30 10 183 29 262 8 33 16 75 17 93 1 20 8 32 17 32 12 0 12 3 -2 18
-10 11 -15 34 -15 65 1 43 3 47 22 41 31 -9 47 -25 39 -38 -4 -6 0 -5 9 2 11
9 18 10 23 2 3 -5 17 -10 31 -10 13 0 24 -4 24 -10 0 -5 6 -10 13 -10 17 0 9
-72 -9 -83 -15 -9 -19 -43 -5 -51 4 -3 7 7 5 22 -2 17 -1 20 2 7 4 -11 11 -26
16 -32 7 -9 6 -15 -5 -19 -9 -3 -13 -12 -10 -20 3 -8 8 -12 12 -10 3 2 11 -7
18 -20 13 -28 6 -32 -12 -7 -12 16 -14 16 -29 0 -10 -9 -14 -17 -9 -17 5 0 14
5 21 12 9 9 12 8 12 -5 0 -9 6 -17 14 -17 7 0 19 -15 27 -32 7 -18 36 -69 64
-113 29 -44 55 -93 59 -110 5 -22 4 -26 -4 -15 -13 19 -13 -1 0 -34 7 -20 6
-27 -8 -35 -15 -8 -14 -10 6 -8 21 1 23 5 18 31 -5 22 -3 27 5 19 6 -6 12 -29
12 -51 1 -22 5 -38 10 -35 7 4 8 3 14 -37 11 -81 19 -114 26 -103 10 17 0 164
-13 177 -15 15 -12 29 4 23 8 -3 17 0 20 8 3 8 0 12 -7 10 -7 -3 -16 -1 -22 3
-15 10 -55 113 -49 123 3 5 0 9 -6 9 -7 0 -9 7 -6 16 4 9 1 23 -5 30 -9 11 -6
14 19 14 22 0 31 -5 35 -22 4 -12 9 -19 12 -16 3 3 3 17 -1 32 -4 19 -13 26
-29 26 -27 0 -41 26 -19 34 9 3 14 14 13 23 -4 40 2 45 22 19 19 -24 18 -53
-1 -41 -5 3 -12 0 -16 -6 -5 -8 1 -10 20 -7 25 5 27 3 22 -18 -5 -18 -2 -24 9
-24 11 0 14 -6 9 -24 -4 -18 -1 -25 16 -29 17 -4 20 -10 15 -28 -5 -14 -2 -25
6 -30 11 -7 11 -9 -1 -9 -11 0 -16 -14 -18 -53 -2 -28 -7 -53 -12 -55 -6 -2
-10 -11 -10 -20 0 -13 5 -11 20 8 l20 25 0 -27 c0 -22 -5 -28 -22 -29 -18 -1
-19 -2 -5 -6 9 -2 14 -9 11 -15 -12 -19 -17 -228 -5 -228 6 0 11 -7 11 -16 0
-23 75 -91 113 -103 18 -5 84 -12 147 -15 128 -6 188 -22 265 -72 57 -36 76
-56 94 -99 l12 -30 -27 29 c-59 63 -208 102 -294 78 -30 -8 -24 -9 45 -9 107
0 176 -27 241 -93 42 -42 52 -62 80 -149 17 -55 39 -112 48 -126 16 -25 14
-65 -3 -65 -4 0 -13 17 -19 38 -16 51 -94 169 -144 214 -56 52 -96 61 -210 48
-123 -14 -224 -56 -335 -140 -205 -155 -217 -160 -321 -142 -50 8 -68 8 -74
-1 -11 -18 -2 -24 66 -42 120 -33 199 -9 333 100 43 34 80 59 81 54 3 -8 -10
-28 -78 -113 -87 -110 -183 -189 -257 -211 -55 -17 -177 -21 -153 -5 11 7 2
10 -32 10 -72 0 -114 25 -143 84 -41 82 -30 178 40 336 45 103 59 182 52 283
-8 101 -29 185 -66 257 -148 290 -158 316 -168 425 -6 79 9 211 33 278 17 46
19 55 36 175 7 45 15 82 18 82 4 0 22 -14 41 -31z m-1493 -72 c2 -11 -3 -17
-16 -17 -24 0 -32 8 -25 26 7 20 37 13 41 -9z m2429 -129 c-2 -13 -4 -5 -4 17
-1 22 1 32 4 23 2 -10 2 -28 0 -40z m-535 -6 c-7 -2 -10 -8 -6 -13 3 -5 0 -9
-5 -9 -6 0 -11 -5 -11 -11 0 -6 8 -8 19 -4 15 4 20 -2 29 -35 9 -38 9 -40 -10
-34 -15 4 -19 2 -16 -7 3 -8 15 -14 27 -13 11 0 21 -5 21 -12 0 -8 -6 -11 -15
-8 -8 4 -15 1 -15 -5 0 -6 5 -11 10 -11 6 0 10 -4 10 -10 0 -5 -11 -10 -24
-10 -19 0 -26 7 -31 30 -4 16 -7 33 -7 37 0 5 -4 13 -8 18 -5 6 -7 27 -6 47 2
21 -1 35 -5 32 -5 -3 -9 6 -9 20 0 24 2 24 32 14 18 -6 27 -13 20 -16z m3655
-104 c-3 -8 -6 -5 -6 6 -1 11 2 17 5 13 3 -3 4 -12 1 -19z m-2706 -34 c36 -18
80 -45 98 -59 l31 -27 -42 -34 c-105 -84 -203 -106 -259 -56 l-31 27 36 38
c20 21 36 43 36 48 0 5 -15 9 -34 9 -65 0 -55 41 15 62 22 6 39 18 39 25 0 18
23 11 111 -33z m-871 -24 c0 -11 -4 -20 -10 -20 -5 0 -10 9 -10 20 0 11 5 20
10 20 6 0 10 -9 10 -20z m3118 -23 c2 -10 -4 -27 -14 -38 -16 -18 -16 -19 5
-19 16 0 25 9 32 30 13 37 22 37 57 4 18 -18 21 -25 10 -21 -10 4 -18 2 -18
-4 0 -5 -8 -9 -17 -7 -10 2 -19 -4 -21 -14 -2 -12 2 -15 18 -11 16 4 19 2 14
-11 -8 -20 -8 -20 -45 0 -17 8 -37 13 -45 10 -8 -3 -14 1 -14 9 0 21 -18 18
-32 -5 -7 -11 -20 -20 -28 -20 -12 1 -11 3 3 11 14 8 16 14 6 25 -6 7 -15 11
-20 8 -5 -3 -9 1 -9 8 0 9 -3 9 -10 -2 -9 -13 -11 -13 -20 0 -14 22 -13 25 23
42 34 16 34 16 29 -8 -3 -19 -1 -23 12 -18 9 3 16 15 16 25 0 22 18 25 26 4 5
-11 9 -12 19 -2 11 10 10 13 -4 19 -13 6 -12 7 4 5 11 -1 21 -10 23 -20z m645
-17 c65 -57 75 -178 21 -244 -16 -19 -33 -35 -38 -35 -5 -1 -14 -8 -21 -17
-10 -15 -14 -14 -37 9 -14 14 -28 37 -32 51 -5 21 -3 26 13 26 11 0 32 16 48
37 23 30 28 46 27 88 -1 28 -9 65 -18 83 -21 40 -7 41 37 2z m-55 -5 c-3 -3
-9 2 -12 12 -6 14 -5 15 5 6 7 -7 10 -15 7 -18z m-3767 -7 l2 -23 4 23 c2 12
9 22 14 22 6 0 7 -4 4 -10 -3 -5 -2 -10 4 -10 5 0 12 6 14 13 3 6 6 0 6 -15 1
-21 -3 -25 -19 -21 -15 4 -20 0 -20 -13 0 -14 -4 -12 -15 10 -18 33 -19 46 -5
46 6 0 11 -10 11 -22z m3717 -50 c-2 -15 -11 -24 -25 -26 -25 -4 -31 16 -11
36 20 20 40 14 36 -10z m-3691 -10 c-3 -8 -6 -5 -6 6 -1 11 2 17 5 13 3 -3 4
-12 1 -19z m3033 -4 c0 -7 -8 -10 -20 -7 -11 3 -20 9 -20 14 0 4 9 7 20 6 11
-1 20 -7 20 -13z m241 7 c-9 -6 -10 -11 -2 -15 6 -4 11 -11 11 -15 0 -13 -36
-20 -51 -10 -12 7 -12 9 0 9 7 0 11 6 8 14 -7 18 1 26 27 26 16 0 18 -3 7 -9z
m429 -72 c0 -5 -7 -9 -15 -9 -15 0 -20 12 -9 23 8 8 24 -1 24 -14z m-543 -17
c25 -4 63 -106 63 -170 0 -72 -16 -94 -77 -111 -54 -15 -78 -14 -131 10 -52
22 -112 93 -112 131 1 17 8 8 26 -30 37 -76 91 -100 154 -67 41 21 38 27 -5 9
-50 -21 -73 -18 -105 14 -52 52 -63 139 -19 148 7 2 26 6 42 10 24 6 27 4 27
-19 0 -30 -31 -52 -62 -44 -17 5 -19 2 -13 -20 13 -52 35 -73 77 -73 32 0 47
7 74 34 40 40 45 90 16 147 l-18 36 25 -2 c14 -1 31 -3 38 -3z m483 -97 c14
-7 43 -33 65 -57 22 -24 69 -61 105 -81 59 -35 68 -44 95 -105 59 -128 61
-163 18 -277 -19 -49 -20 -50 -59 -48 -21 1 -52 9 -69 17 -16 9 -37 16 -46 16
-12 0 -15 7 -11 26 3 19 1 25 -7 20 -6 -4 -11 -16 -11 -26 0 -15 -10 -20 -44
-25 -40 -6 -76 -23 -221 -99 -56 -30 -120 -27 -179 8 -82 48 -114 82 -121 130
-8 53 16 190 43 243 23 44 114 133 136 133 19 0 76 48 76 64 0 18 39 52 80 70
39 18 107 13 150 -9z m-3490 -20 c0 -19 -4 -35 -8 -35 -4 0 -6 16 -4 35 2 19
6 35 8 35 2 0 4 -16 4 -35z m2876 -36 c10 -17 -13 -36 -27 -22 -12 12 -4 33
11 33 5 0 12 -5 16 -11z m1198 -106 c3 -21 6 -105 6 -188 0 -190 -12 -239 -99
-392 -44 -78 -68 -156 -81 -266 -9 -67 -16 -94 -22 -85 -14 20 1 -51 18 -86 8
-16 14 -41 14 -56 0 -54 31 -204 52 -254 21 -48 79 -151 115 -206 l17 -25 -23
20 c-46 40 -91 118 -167 293 -34 78 -58 -15 -29 -114 9 -30 13 -59 11 -63 -12
-19 17 -130 52 -201 20 -41 39 -78 40 -82 2 -5 -6 -8 -17 -8 -33 0 -26 -34 14
-66 24 -19 33 -33 30 -45 -8 -24 20 -88 52 -121 15 -15 25 -30 22 -32 -11 -11
-108 76 -149 134 -25 34 -49 67 -55 74 -5 6 -36 43 -68 83 -137 169 -205 179
-346 50 -64 -59 -182 -147 -197 -147 -2 0 -4 10 -4 23 0 36 45 122 89 168 88
94 107 188 57 292 -15 31 -32 57 -37 57 -12 0 -12 -1 16 -62 47 -100 31 -171
-60 -277 -51 -59 -59 -76 -84 -162 l-16 -57 -48 32 c-26 17 -47 35 -47 41 0 6
-30 34 -67 62 -38 29 -84 67 -103 86 -19 18 -62 53 -95 77 -33 24 -62 45 -64
47 -13 10 -38 140 -30 154 5 10 1 35 -11 68 -25 65 -25 85 -1 45 11 -18 24
-35 29 -38 25 -16 18 17 -19 89 -41 79 -44 102 -10 71 35 -32 30 0 -9 59 -22
33 -38 61 -35 63 2 2 14 -2 27 -9 23 -12 23 -12 4 10 -13 15 -15 21 -6 21 8 0
4 10 -11 26 -26 28 -18 26 48 -7 20 -10 47 -19 59 -19 12 0 38 -7 57 -15 20
-8 47 -15 59 -15 14 1 -12 18 -67 44 -68 32 -101 55 -137 94 -25 29 -51 52
-56 52 -5 0 -12 7 -16 15 -4 11 2 15 24 15 38 0 38 13 0 50 -18 17 -27 35 -24
44 3 9 -7 31 -25 53 -34 41 -42 66 -13 41 18 -16 82 -34 82 -23 0 3 -12 17
-27 30 l-28 25 33 -6 c28 -6 31 -4 26 11 -7 16 -2 17 37 13 24 -3 82 -21 128
-41 47 -21 86 -36 87 -34 2 2 -26 18 -61 37 -76 40 -80 54 -5 16 67 -34 91
-51 83 -59 -3 -4 0 -7 9 -7 8 0 15 -6 16 -12 0 -7 3 -65 5 -128 6 -130 17
-150 86 -150 94 0 156 47 167 127 11 80 12 82 52 88 137 23 302 83 349 127 12
11 27 36 33 54 6 18 20 36 32 40 13 4 32 32 53 78 25 55 38 72 54 73 29 2 140
99 147 129 3 13 10 24 14 24 8 0 40 118 40 150 0 34 17 22 24 -17z m-6195
-253 c23 -30 41 -62 41 -72 0 -63 -36 -255 -66 -350 -35 -109 -71 -183 -156
-318 -52 -83 -91 -190 -68 -190 5 0 10 6 10 13 0 6 9 30 20 52 l19 40 -5 -50
-5 -50 14 36 c8 20 22 50 33 67 10 17 36 58 57 92 21 34 44 69 52 77 8 8 15
20 15 27 0 7 9 25 20 39 21 27 90 152 90 165 0 19 23 72 30 72 5 0 12 -16 16
-36 4 -23 11 -33 19 -30 23 8 24 -19 5 -90 -30 -110 -79 -198 -214 -386 -34
-48 -89 -169 -101 -223 -6 -27 -5 -28 8 -13 8 10 18 14 22 10 5 -4 5 -1 1 6
-4 7 -3 18 2 25 5 7 13 23 17 36 14 46 69 125 132 191 35 36 63 71 63 78 0 7
7 15 15 18 15 6 42 46 87 129 l27 50 1 -55 c0 -66 -38 -276 -54 -293 -26 -28
-120 -225 -185 -389 -86 -217 -105 -303 -99 -447 6 -128 21 -171 113 -321 125
-206 151 -291 142 -463 -4 -81 -12 -123 -39 -201 l-34 -100 -12 72 c-22 134
-77 248 -203 427 -176 248 -202 384 -145 730 25 146 34 178 63 229 35 61 63
122 63 138 0 20 -17 -4 -55 -77 -22 -42 -50 -88 -62 -101 -37 -40 -103 -142
-128 -197 -57 -124 -82 -313 -64 -487 15 -151 35 -220 91 -312 60 -99 84 -152
98 -214 15 -65 3 -161 -26 -221 -16 -33 -21 -39 -16 -18 14 59 6 158 -18 219
-12 32 -50 93 -84 135 -96 121 -112 142 -138 201 -49 107 -65 241 -49 419 16
183 34 245 111 401 99 200 102 212 111 430 6 173 10 205 34 280 27 85 78 187
122 246 13 17 23 34 23 37 0 3 18 32 39 64 105 159 145 272 145 420 1 56 4 99
8 95 3 -4 25 -32 47 -62z m5816 -202 c-13 -46 -42 -70 -128 -109 -84 -38 -199
-69 -254 -69 -24 0 -25 2 -18 38 10 57 28 86 55 92 14 3 41 14 60 25 46 26
127 42 218 44 72 1 73 0 67 -21z m-898 -4 c24 -9 43 -21 43 -25 0 -12 2 -12
-54 16 -57 29 -51 33 11 9z m-309 -197 c56 -76 69 -120 55 -200 l-8 -49 -54
66 c-49 59 -115 116 -134 116 -4 0 23 -31 60 -68 129 -128 239 -314 308 -517
20 -60 41 -118 46 -127 21 -41 116 -359 175 -588 20 -80 61 -212 92 -295 76
-209 133 -378 128 -382 -2 -3 -27 35 -55 83 -66 111 -119 174 -179 212 -126
81 -347 84 -562 6 -149 -53 -240 -110 -397 -245 -78 -68 -103 -84 -107 -72 -4
8 -2 21 3 27 5 6 25 57 44 113 58 164 87 210 230 365 106 115 130 146 168 220
45 90 70 191 76 316 8 164 -11 256 -97 462 l-31 75 16 95 c8 52 41 198 72 324
l57 228 22 -48 c12 -27 44 -80 72 -117z m600 152 c-2 -6 5 -13 15 -14 10 -2
17 3 18 13 0 11 2 12 6 4 2 -6 9 -10 14 -6 5 3 9 -2 9 -11 0 -9 -4 -14 -9 -10
-5 3 -12 1 -16 -5 -3 -5 -1 -10 5 -10 7 0 9 -16 4 -50 -4 -34 -3 -50 4 -50 14
0 34 35 25 44 -3 3 -1 6 5 6 7 0 11 6 10 13 -2 8 10 12 40 11 23 0 42 3 42 8
0 4 -8 8 -17 8 -15 0 -15 3 4 21 28 29 43 18 32 -24 -4 -17 -11 -71 -14 -118
-8 -101 -28 -143 -80 -165 -45 -18 -109 -18 -125 1 -14 17 -23 193 -14 268 3
26 13 54 21 62 17 18 24 19 21 4z m130 -37 c2 -6 -6 -10 -17 -9 -22 1 -26 8
-14 21 9 9 26 3 31 -12z m-2476 -220 c75 -117 209 -253 280 -285 15 -6 29 -16
32 -22 2 -6 -5 -64 -16 -130 -30 -181 -28 -353 5 -478 55 -207 99 -268 409
-569 138 -134 239 -241 264 -280 45 -68 134 -236 134 -252 0 -6 -21 10 -47 36
-110 106 -213 138 -560 174 -182 19 -376 15 -467 -10 -32 -9 -74 -18 -92 -21
-45 -5 -117 -61 -247 -190 -60 -59 -110 -105 -112 -103 -2 2 12 53 31 113 38
118 117 440 158 647 41 202 66 424 76 680 14 332 32 413 125 557 45 71 58 104
32 82 -11 -8 -19 5 -40 67 -14 42 -21 69 -14 59 7 -11 28 -44 49 -75z m-1115
-108 c-3 -3 -12 -4 -19 -1 -8 3 -5 6 6 6 11 1 17 -2 13 -5z m-773 -454 c26
-150 100 -423 154 -570 67 -181 116 -299 123 -300 9 0 102 145 142 221 19 36
45 100 57 142 23 77 45 106 33 45 -16 -86 -47 -164 -106 -267 -59 -104 -108
-170 -126 -171 -12 0 -13 -25 -8 -152 4 -83 7 -195 7 -249 l0 -97 35 -20 c40
-25 51 -57 35 -106 -9 -28 -19 -37 -46 -45 -63 -17 -104 11 -104 74 0 42 27
85 53 85 9 0 11 61 9 260 l-3 261 -56 137 c-87 215 -119 313 -168 512 -66 268
-91 498 -67 625 5 28 9 -8 13 -125 4 -91 14 -208 23 -260z m-2414 -45 c-33
-19 -49 -19 -24 0 10 8 26 14 34 14 9 0 4 -6 -10 -14z m105 -18 c40 -27 69
-62 79 -94 4 -13 12 -23 17 -23 5 0 9 -7 9 -15 0 -27 -16 -16 -29 22 -15 41
-29 58 -85 102 -46 36 -40 41 9 8z m537 -8 c37 -26 95 -118 110 -173 7 -25 16
-46 20 -46 4 0 8 28 8 63 0 63 23 163 42 182 6 7 7 1 3 -15 -9 -38 12 -185 33
-233 10 -23 26 -50 36 -59 15 -16 15 -19 -1 -55 -10 -21 -38 -63 -64 -93 -58
-70 -127 -170 -166 -240 -39 -70 -113 -289 -113 -334 0 -15 -7 -12 -37 14 -64
57 -105 66 -186 44 -11 -4 2 22 39 72 56 79 66 98 113 214 14 36 31 66 36 66
6 0 13 26 17 59 9 72 23 115 57 180 14 28 27 53 29 58 2 4 -4 7 -14 7 -27 0
-83 -48 -116 -99 -26 -40 -28 -42 -22 -16 11 49 63 123 111 157 26 19 39 34
31 36 -7 2 -29 11 -48 20 -38 17 -153 23 -205 9 l-30 -8 25 21 c45 36 94 54
157 58 69 5 110 -13 157 -69 41 -49 46 -25 11 49 -30 62 -63 103 -120 147 -19
15 -18 15 20 9 22 -4 52 -15 67 -25z m-416 -87 c0 -4 3 -14 6 -22 15 -38 16
-79 3 -96 -13 -18 -14 -18 -15 -1 0 9 5 17 10 17 12 0 3 46 -15 75 -6 11 -10
26 -7 33 4 12 16 8 18 -6z m49 -12 c-4 -6 -1 -17 5 -25 8 -10 9 -15 2 -15 -6
0 -14 5 -17 10 -7 12 0 40 10 40 4 0 3 -5 0 -10z m5 -90 c5 0 11 8 13 18 4 15
5 15 6 0 0 -9 -3 -19 -9 -23 -5 -3 -7 -12 -4 -20 4 -8 11 -12 17 -8 17 11 -1
-61 -20 -74 -24 -18 -43 -16 -42 5 0 9 3 12 6 5 3 -9 10 -7 24 6 15 13 18 25
13 45 -9 37 -28 33 -20 -4 5 -25 2 -30 -14 -30 -14 0 -20 7 -20 21 0 11 4 17
10 14 5 -3 13 13 17 37 4 24 9 35 11 26 2 -10 7 -18 12 -18z m245 -21 c5 -6 2
-9 -8 -9 -10 0 -31 -7 -48 -15 -28 -15 -30 -15 -39 10 -6 15 -10 29 -10 32 0
8 94 -8 105 -18z m6783 -51 c28 -29 79 -93 114 -143 87 -123 150 -182 247
-233 128 -66 227 -146 247 -198 19 -51 14 -123 -13 -163 l-17 -26 -7 46 c-6
42 -19 71 -68 157 -15 26 -21 29 -30 18 -8 -10 -7 -19 8 -37 29 -38 62 -121
64 -160 1 -42 -11 -60 -67 -101 -33 -24 -49 -28 -102 -28 -39 0 -77 7 -99 17
l-35 17 20 21 c11 11 23 36 26 55 7 38 3 36 -40 -22 -23 -33 -32 -38 -67 -38
-49 0 -68 9 -139 68 -70 58 -80 70 -81 101 -1 20 -2 21 -6 7 -6 -23 -61 67
-130 211 -24 51 -58 106 -75 123 -29 29 -29 31 -13 56 9 14 27 30 41 36 33 15
30 24 -13 39 -21 6 -42 14 -46 16 -13 8 80 71 114 78 67 15 42 45 -38 45 -61
0 -70 16 -25 46 42 29 83 42 134 43 43 1 50 -2 96 -51z m-5761 8 c-15 -38 -29
-185 -23 -240 7 -72 52 -240 71 -270 33 -52 48 -138 43 -251 -3 -60 -3 -101
-1 -90 3 10 11 29 19 40 8 12 15 39 18 60 2 22 7 48 11 58 4 10 5 46 2 80 -8
88 6 52 39 -98 30 -140 30 -139 19 -261 -6 -64 -4 -98 10 -154 10 -40 15 -88
12 -111 -7 -54 -63 -129 -119 -159 -25 -14 -69 -47 -98 -73 -29 -27 -54 -46
-56 -44 -2 2 12 48 31 103 69 192 78 306 39 459 -9 33 -20 83 -25 110 -4 28
-17 84 -28 125 -37 135 -46 264 -32 433 14 170 27 244 47 265 8 7 12 18 9 23
-4 5 -1 9 5 9 7 0 10 -6 7 -14z m-438 -183 l-12 -58 -15 32 c-14 29 -13 34 9
69 28 46 34 32 18 -43z m-933 -84 c37 -23 48 -38 70 -102 12 -38 12 -40 -2
-22 -8 11 -18 31 -21 45 -7 30 -22 50 -37 50 -8 0 -8 -2 1 -8 6 -4 13 -18 16
-32 2 -14 2 -20 0 -13 -2 6 -19 14 -36 18 -52 10 -77 27 -77 51 0 38 37 44 86
13z m-56 -70 c0 -6 -4 -7 -10 -4 -5 3 -10 11 -10 16 0 6 5 7 10 4 6 -3 10 -11
10 -16z m55 -9 c3 -5 -3 -10 -15 -10 -12 0 -18 5 -15 10 3 6 10 10 15 10 5 0
12 -4 15 -10z m-2 -97 c4 -3 2 -12 -4 -20 -9 -9 -8 -13 0 -13 20 0 11 -37 -15
-64 -24 -24 -24 -31 0 -27 4 1 5 -14 2 -34 -6 -29 -3 -39 18 -60 14 -14 32
-25 41 -25 21 0 19 -26 -5 -50 -28 -28 -57 -25 -91 11 -48 52 -66 169 -32 219
40 60 69 81 86 63z m-333 -107 c0 -2 -9 -6 -20 -9 -11 -3 -18 -1 -14 4 5 9 34
13 34 5z m25 -56 c-3 -5 -12 -10 -18 -10 -7 0 -6 4 3 10 19 12 23 12 15 0z
m-15 -34 c-6 -8 -19 -12 -27 -9 -14 6 -14 8 3 14 30 12 37 10 24 -5z m939
-216 c6 -29 10 -55 7 -57 -10 -11 -85 31 -90 50 -16 62 1 152 41 213 l18 28 6
-91 c4 -50 12 -114 18 -143z m-588 203 c13 -16 12 -17 -3 -4 -17 13 -22 21
-14 21 2 0 10 -8 17 -17z m-391 -14 c0 -5 5 -7 10 -4 13 8 13 -5 -2 -38 -18
-37 -24 -34 -23 13 0 22 3 40 8 40 4 0 7 -5 7 -11z m73 -12 c3 -8 -1 -14 -9
-14 -15 0 -18 9 -7 20 9 9 10 9 16 -6z m573 -36 c17 -10 60 -51 95 -91 35 -39
93 -94 127 -122 56 -44 92 -94 92 -127 0 -6 -14 -18 -30 -26 -17 -9 -28 -20
-25 -25 4 -6 18 -4 36 6 30 15 31 15 24 -8 -29 -98 -110 -214 -170 -242 -79
-38 -200 -11 -296 65 -20 15 -55 31 -78 35 -30 5 -41 11 -37 20 3 8 1 14 -4
14 -6 0 -10 -7 -10 -15 0 -10 -10 -15 -27 -15 -16 0 -48 -9 -72 -21 -25 -11
-48 -16 -51 -12 -4 4 -20 41 -35 82 -24 65 -27 83 -22 153 4 63 11 87 31 119
44 66 214 180 321 215 57 18 95 17 131 -5z m-579 -1 c-1 -3 -9 -18 -17 -33 -8
-16 -19 -26 -27 -23 -7 3 -13 -1 -13 -9 0 -8 -8 -15 -17 -14 -11 0 -13 3 -5 6
6 2 12 14 12 25 0 14 5 18 16 14 12 -5 15 -2 10 10 -3 9 -4 20 -1 24 6 9 47 9
42 0z m1133 -41 c0 -37 -26 -70 -36 -45 -6 17 16 76 28 76 5 0 8 -14 8 -31z
m-1119 -22 c-10 -9 -11 -8 -5 6 3 10 9 15 12 12 3 -3 0 -11 -7 -18z m49 13 c0
-5 -5 -10 -11 -10 -5 0 -7 5 -4 10 3 6 8 10 11 10 2 0 4 -4 4 -10z m-162 -41
c0 -42 14 -70 26 -50 4 6 2 11 -3 11 -6 0 -11 9 -11 20 0 29 27 24 34 -6 4
-15 6 -27 4 -29 -2 -1 -11 -6 -21 -12 -17 -9 -17 -10 3 -33 19 -22 21 -23 40
-5 11 10 21 28 21 39 1 16 2 17 6 4 2 -10 10 -15 19 -11 8 3 14 -1 14 -10 0
-8 -11 -18 -25 -21 -14 -4 -25 -14 -25 -22 0 -10 6 -14 15 -10 8 3 15 1 15 -4
0 -6 7 -10 15 -10 9 0 12 6 9 15 -4 8 -1 22 6 30 6 8 9 18 7 23 -3 4 -2 14 4
22 5 8 9 11 10 5 6 -40 5 -56 -2 -61 -14 -8 -10 -24 6 -24 17 0 20 -35 4 -45
-17 -11 -23 3 -8 22 12 15 12 16 -4 10 -10 -4 -25 -7 -33 -7 -8 0 -14 -7 -14
-15 0 -8 -5 -15 -11 -15 -5 0 -7 -5 -4 -10 4 -6 11 -8 16 -5 5 4 9 -12 9 -35
0 -25 4 -39 10 -35 6 3 10 -1 10 -11 0 -9 8 -23 18 -30 9 -7 14 -14 10 -14
-16 0 -80 68 -69 74 17 11 13 36 -5 36 -16 0 -16 11 1 53 5 12 2 17 -8 17 -10
0 -19 -13 -23 -36 -5 -25 -9 -32 -15 -22 -5 7 -6 25 -3 39 4 21 1 28 -15 32
-12 3 -21 13 -21 24 0 10 -4 23 -10 29 -14 14 -25 124 -12 124 6 0 10 -18 10
-41z m143 14 c-11 -4 -11 -7 0 -13 10 -7 10 -12 1 -23 -7 -8 -10 -23 -6 -33 5
-16 2 -15 -14 4 -11 12 -25 22 -31 22 -17 0 0 31 23 40 12 5 26 9 31 9 6 -1 4
-3 -4 -6z m7544 -71 c0 -18 -20 -15 -23 4 -3 10 1 15 10 12 7 -3 13 -10 13
-16z m-7635 -22 c0 -5 -4 -10 -10 -10 -5 0 -10 5 -10 10 0 6 5 10 10 10 6 0
10 -4 10 -10z m-10 -80 c0 -5 -5 -10 -11 -10 -5 0 -7 5 -4 10 3 6 8 10 11 10
2 0 4 -4 4 -10z m1988 -73 c51 -74 72 -124 72 -172 0 -32 4 -45 14 -45 22 0
132 76 187 129 l49 47 37 -39 c36 -37 154 -135 204 -171 l23 -16 -28 -57 c-48
-98 -97 -164 -205 -276 -180 -186 -178 -181 -211 -472 -28 -239 -77 -523 -95
-543 -4 -5 -153 90 -220 139 -134 98 -346 391 -360 497 -20 151 -38 232 -62
280 l-27 54 24 45 c13 25 43 66 66 92 61 68 113 154 128 212 7 29 16 48 19 42
15 -23 28 -111 29 -193 1 -98 11 -130 26 -89 12 30 122 128 177 157 57 31 69
41 104 97 36 56 40 110 16 210 -17 69 -20 176 -5 137 6 -13 23 -42 38 -65z
m-1928 -7 c0 -5 -4 -10 -10 -10 -5 0 -10 5 -10 10 0 6 5 10 10 10 6 0 10 -4
10 -10z m70 -25 c0 -8 -4 -17 -10 -20 -6 -4 -10 5 -10 20 0 15 4 24 10 20 6
-3 10 -12 10 -20z m940 -53 c0 -12 3 -12 15 -2 13 10 18 11 28 1 9 -10 8 -15
-5 -25 -26 -19 -22 -30 3 -12 20 13 23 12 44 -12 15 -17 20 -31 14 -38 -5 -6
-7 -13 -4 -16 3 -3 -2 -11 -11 -18 -12 -11 -22 -11 -45 -3 -16 6 -29 8 -29 3
0 -4 9 -10 21 -13 12 -3 18 -10 14 -16 -7 -13 41 -36 83 -40 15 -1 14 -4 -6
-21 -23 -19 -70 -34 -202 -65 -75 -17 -204 -72 -243 -103 -11 -10 -46 -40 -77
-68 -97 -87 -140 -107 -240 -112 -85 -4 -88 -3 -118 24 -17 16 -33 39 -37 51
-6 21 -5 21 23 7 54 -26 140 -28 210 -5 94 32 134 62 271 200 100 101 130 138
157 195 19 39 34 77 34 86 1 12 3 12 14 -3 12 -16 14 -16 20 -2 4 11 2 14 -6
9 -6 -4 -9 -3 -5 2 3 5 21 10 41 10 26 1 36 -3 36 -14z m-560 -201 c21 -16 22
-21 11 -35 -8 -9 -11 -20 -7 -24 4 -4 14 1 21 12 13 18 16 18 55 2 22 -9 58
-16 80 -16 24 0 40 -5 40 -12 0 -16 -97 -108 -114 -108 -8 0 -19 14 -25 31 -8
24 -15 30 -33 27 -19 -2 -25 -12 -32 -55 l-10 -53 -47 0 c-32 0 -64 9 -100 28
-56 29 -65 45 -54 89 l6 26 25 -23 c16 -16 24 -34 24 -57 0 -18 4 -33 9 -33 5
0 9 22 9 49 0 58 24 112 64 146 35 30 45 30 78 6z m51 -170 c16 -28 16 -29 -8
-40 -33 -15 -36 -11 -28 33 9 43 15 45 36 7z m-3026 -348 c-28 -66 -34 -114
-19 -169 8 -31 18 -63 23 -73 16 -29 104 -106 139 -120 39 -16 40 -24 7 -39
-88 -40 -175 12 -237 143 -32 69 -38 153 -13 212 22 53 34 63 72 63 30 0 34
-3 28 -17z m447 -205 c54 -23 122 -92 145 -146 14 -35 14 -37 -7 -54 -48 -39
-171 -7 -234 60 -32 35 -44 100 -27 145 10 26 14 28 44 22 17 -4 53 -16 79
-27z m4714 -104 c-4 -9 -1 -24 6 -33 10 -14 9 -14 -6 1 -17 15 -17 48 0 48 3
0 3 -7 0 -16z m8 -71 c14 -21 33 -69 41 -108 l17 -70 -29 -52 -28 -53 -56 0
c-58 0 -109 24 -133 62 -11 18 -5 31 82 181 53 89 70 95 106 40z m332 24 c10
-10 -17 -8 -41 3 -17 8 -16 9 7 7 15 -2 30 -6 34 -10z m104 -6 c0 -6 -9 -9
-20 -8 -11 1 -20 5 -20 9 0 4 9 8 20 8 11 0 20 -4 20 -9z m-55 -21 c-6 -31 4
-49 26 -45 16 3 18 0 13 -23 -4 -15 -13 -34 -20 -42 -12 -12 -14 -12 -14 3 0
9 5 17 10 17 6 0 10 5 10 11 0 5 -5 7 -10 4 -6 -3 -14 4 -19 16 l-8 23 -12
-21 c-15 -29 -14 -34 7 -26 16 6 16 6 0 -10 -34 -35 -39 -7 -9 52 15 29 17 41
8 50 -8 8 -7 11 5 11 12 0 16 -7 13 -20z m-5175 -13 c42 -29 93 -47 130 -47
43 0 65 -60 47 -132 -20 -79 -290 -20 -399 88 -21 20 -38 39 -38 43 0 11 104
51 135 52 17 0 39 4 50 9 31 13 38 12 75 -13z m5130 12 c0 -27 -13 -37 -36
-29 -18 7 -24 6 -24 -5 0 -8 6 -12 14 -9 8 3 17 1 20 -5 9 -14 -34 -92 -46
-85 -6 4 -8 -1 -4 -14 13 -39 -8 -59 -59 -58 -36 1 -46 -3 -51 -18 -4 -10 0
-22 7 -27 8 -5 9 -9 3 -9 -17 0 -37 27 -29 40 13 22 -52 10 -69 -12 l-16 -23
11 25 c8 20 22 28 62 38 29 7 54 17 55 22 2 6 8 10 13 10 6 0 8 -4 5 -9 -7
-11 41 -24 54 -16 6 4 10 12 9 18 0 9 -2 9 -5 0 -7 -17 -34 -4 -27 13 4 10 0
12 -13 7 -16 -6 -16 -4 2 20 10 14 23 27 28 27 5 0 3 -7 -4 -15 -10 -12 -10
-19 -2 -27 8 -8 13 -3 18 17 5 19 9 23 15 14 5 -9 10 -5 14 14 4 15 11 27 16
27 5 0 9 4 9 10 0 5 -7 7 -15 4 -21 -8 -30 22 -14 43 10 12 10 15 2 9 -7 -4
-13 -3 -13 3 0 6 16 10 35 9 19 -1 35 -5 35 -9z m96 -11 c4 -6 3 -8 -4 -4 -5
3 -12 1 -14 -6 -3 -8 -7 -6 -11 5 -7 20 17 24 29 5z m-5548 -33 c17 -6 49 -31
69 -55 l37 -43 -33 6 c-41 8 -91 45 -122 89 -21 29 -21 31 -3 23 10 -4 34 -13
52 -20z m5442 -121 c0 -6 -7 -11 -15 -11 -8 0 -15 4 -15 9 0 4 4 8 10 8 5 0 7
8 4 18 -5 14 -4 15 5 2 6 -8 11 -20 11 -26z m39 -5 c-22 -14 -33 -10 -19 6 7
8 17 12 22 9 6 -4 5 -10 -3 -15z m-62 -48 c-7 -2 -16 -10 -20 -17 -4 -8 -13
-14 -19 -14 -7 0 -7 4 1 13 6 8 7 18 3 22 -4 5 -1 5 6 1 7 -4 12 -1 12 9 0 13
2 14 14 3 10 -9 11 -14 3 -17z m83 12 c0 -9 -11 -59 -25 -112 -13 -53 -28
-114 -32 -136 -7 -34 -13 -40 -38 -43 -15 -2 -48 2 -72 9 -51 14 -51 14 -5
139 29 79 57 105 125 119 17 4 33 13 35 20 3 10 -2 12 -22 9 -15 -3 -29 -1
-32 3 -3 5 11 9 30 9 27 0 36 -4 36 -17z m-574 -45 c4 -6 3 -8 -3 -5 -6 4 -13
-3 -16 -15 -4 -12 -9 -19 -12 -16 -6 6 11 48 20 48 2 0 7 -5 11 -12z m275 -58
c5 0 9 -5 9 -10 0 -6 -13 -8 -29 -5 -31 5 -61 -15 -61 -41 0 -8 -5 -14 -12
-14 -6 0 -8 -3 -5 -6 4 -4 -5 -20 -18 -36 -29 -34 -34 -59 -7 -35 22 21 32 21
32 4 0 -8 10 -19 23 -25 l22 -11 -22 0 c-14 -1 -24 7 -29 21 l-6 21 -19 -24
c-10 -13 -19 -20 -19 -15 0 5 -6 3 -14 -3 -8 -7 6 29 30 79 27 53 51 90 60 90
8 0 18 8 21 17 6 15 7 15 15 -3 7 -16 8 -15 4 4 -3 13 -2 31 2 40 5 12 8 7 10
-15 2 -18 7 -33 13 -33z m128 30 c-8 -22 -17 -30 -35 -30 -13 0 -24 2 -24 4 0
13 13 36 21 36 4 0 6 -7 3 -15 -4 -8 -1 -15 5 -15 6 0 11 6 11 13 0 11 19 37
26 37 2 0 -2 -13 -7 -30z m-179 -10 c-6 -12 -14 -19 -17 -17 -2 3 1 15 7 27 6
12 14 19 17 17 2 -3 -1 -15 -7 -27z m-200 10 c0 -5 7 -7 15 -4 8 3 24 -1 37
-10 12 -9 17 -16 11 -16 -7 0 -10 -7 -7 -15 5 -11 -1 -15 -25 -15 -17 0 -31 4
-31 9 0 5 10 7 22 3 18 -4 16 0 -12 26 -19 17 -29 32 -22 32 6 0 12 -4 12 -10z
m-1587 -41 c-8 -8 -14 -6 -22 9 -13 25 -2 37 18 17 11 -11 12 -18 4 -26z
m1892 31 c3 -5 -3 -10 -15 -10 -12 0 -18 5 -15 10 3 6 10 10 15 10 5 0 12 -4
15 -10z m-315 -28 c0 -15 -2 -15 -10 -2 -13 20 -13 33 0 25 6 -3 10 -14 10
-23z m164 20 c-6 -4 -25 -36 -42 -72 -18 -36 -38 -74 -45 -85 -6 -11 -13 -22
-14 -24 -1 -2 -9 4 -18 12 -17 18 -20 43 -5 52 6 3 10 -4 10 -17 l1 -23 12 23
c7 12 16 19 20 16 7 -7 11 10 8 35 -2 7 2 10 8 6 7 -4 10 3 8 17 -1 14 3 22
11 21 6 -2 12 6 12 16 0 15 -5 18 -22 14 -19 -4 -20 -3 -8 6 8 6 29 11 45 11
17 0 25 -4 19 -8z m-214 -12 c0 -5 -5 -10 -11 -10 -5 0 -7 5 -4 10 3 6 8 10
11 10 2 0 4 -4 4 -10z m406 -56 c-8 -16 -15 -24 -16 -17 0 6 -3 20 -6 30 -5
15 -4 15 5 3 9 -13 11 -13 12 0 1 8 1 20 -1 25 -1 6 4 5 10 -1 9 -9 8 -19 -4
-40z m-424 1 c-5 -18 -11 -25 -15 -18 -4 7 -2 21 5 32 16 26 19 22 10 -14z
m-1332 -29 c0 -6 -7 -2 -15 8 -8 11 -15 25 -15 30 0 6 7 2 15 -8 8 -11 15 -25
15 -30z m1640 3 c0 -12 -7 -19 -18 -19 -10 0 -23 -5 -29 -11 -8 -8 -13 -8 -17
0 -4 6 0 11 8 11 9 0 16 6 16 13 0 17 21 38 32 31 4 -3 8 -14 8 -25z m-169 6
c-1 -15 -24 -12 -29 3 -3 9 2 13 12 10 10 -1 17 -7 17 -13z m209 -26 c0 -11
-4 -19 -9 -19 -10 0 -21 24 -21 47 0 13 3 13 15 3 8 -7 15 -21 15 -31z m-1414
-24 c4 -16 0 -30 -10 -40 -14 -15 -15 -12 -13 24 2 46 13 54 23 16z m1114 9
c0 -11 -6 -15 -20 -11 -17 4 -19 -1 -22 -47 l-3 -51 -5 63 -5 62 28 0 c18 0
27 -5 27 -16z m325 7 c3 -5 1 -12 -5 -16 -5 -3 -10 1 -10 9 0 18 6 21 15 7z
m29 -6 c3 -8 1 -15 -4 -15 -6 0 -10 7 -10 15 0 8 2 15 4 15 2 0 6 -7 10 -15z
m-1528 -91 c-10 -25 -29 -15 -24 11 3 14 1 28 -3 31 -5 3 -9 13 -9 22 0 11 8
4 21 -17 11 -18 18 -40 15 -47z m1211 44 c-3 -7 -5 -2 -5 12 0 14 2 19 5 13 2
-7 2 -19 0 -25z m252 19 c8 -10 7 -14 -4 -14 -8 0 -15 6 -15 14 0 7 2 13 4 13
2 0 9 -6 15 -13z m54 -14 c-7 -3 -14 -14 -14 -26 -1 -18 -2 -19 -6 -4 -5 19
16 52 26 41 3 -4 0 -9 -6 -11z m-316 -23 c12 0 9 -7 -11 -26 -30 -30 -30 -33
-14 -71 16 -38 17 -73 1 -73 -7 0 -10 -7 -7 -17 5 -15 4 -16 -5 -3 -9 12 -10
7 -5 -22 5 -31 3 -38 -10 -38 -9 0 -16 5 -16 10 0 6 4 10 9 10 6 0 6 12 0 32
-11 40 -11 47 0 29 7 -11 11 -9 21 8 13 25 -1 51 -26 51 -8 0 -14 5 -14 10 0
6 6 10 13 10 9 0 9 2 -1 8 -9 6 -6 14 13 32 15 14 25 35 26 54 1 17 3 23 6 14
2 -10 12 -18 20 -18z m273 -34 c0 -8 -3 -8 -8 0 -4 6 -16 14 -27 18 -16 6 -17
9 -5 16 15 10 40 -12 40 -34z m-18 -13 c21 -20 28 -35 25 -53 -13 -73 -88
-325 -99 -332 -36 -22 -106 -7 -182 40 -30 19 -38 20 -33 8 4 -9 2 -16 -3 -16
-5 0 -12 -9 -15 -20 -3 -11 -11 -20 -17 -20 -7 0 -7 4 -1 13 6 6 11 19 11 27
5 79 115 367 146 381 12 5 47 7 80 5 47 -4 64 -10 88 -33z m-225 -9 c2 -13 1
-15 -4 -4 -3 8 -11 19 -17 23 -7 6 -6 7 4 4 8 -2 16 -12 17 -23z m260 4 c-3
-8 -6 -5 -6 6 -1 11 2 17 5 13 3 -3 4 -12 1 -19z m93 2 c0 -5 -4 -10 -10 -10
-5 0 -10 5 -10 10 0 6 5 10 10 10 6 0 10 -4 10 -10z m-368 -48 c-4 -12 -25
-13 -22 -2 0 3 3 16 7 29 6 23 7 23 13 5 4 -10 5 -25 2 -32z m408 34 c0 -3 -4
-8 -10 -11 -5 -3 -10 -1 -10 4 0 6 5 11 10 11 6 0 10 -2 10 -4z m-67 -20 c4
-10 1 -13 -8 -9 -8 3 -12 9 -9 14 7 12 11 11 17 -5z m128 -31 c0 -5 -5 -11
-13 -13 -10 -3 -10 -1 1 6 11 8 10 11 -5 15 -16 5 -16 6 -1 4 10 -1 18 -6 18
-12z m-47 -4 c4 -5 -3 -7 -14 -4 -23 6 -26 13 -6 13 8 0 17 -4 20 -9z m-101
-8 c3 -5 -6 -9 -19 -9 -13 -1 -21 2 -18 7 6 11 31 12 37 2z m-393 -13 c0 -5
-4 -10 -10 -10 -5 0 -10 -7 -10 -15 0 -8 -5 -15 -11 -15 -5 0 -8 3 -6 8 2 4 7
15 10 25 7 18 27 24 27 7z m440 -25 c0 -8 -2 -15 -4 -15 -2 0 -6 7 -10 15 -3
8 -1 15 4 15 6 0 10 -7 10 -15z m-550 -72 c0 -13 -4 -22 -10 -18 -5 3 -7 12
-4 19 3 7 -2 19 -11 26 -12 10 -15 10 -15 -4 0 -9 -5 -16 -11 -16 -6 0 -8 7
-5 16 3 9 6 20 6 25 0 5 11 2 25 -7 15 -10 25 -26 25 -41z m56 31 c-9 -8 -24
-14 -34 -11 -14 3 -13 6 8 15 36 15 44 14 26 -4z m574 -24 c0 -13 -11 -13 -30
0 -12 8 -11 10 8 10 12 0 22 -4 22 -10z m-603 -7 c-3 -5 8 -9 24 -10 16 -1 37
-8 47 -15 15 -11 16 -17 5 -48 l-13 -35 3 39 2 39 -40 1 c-29 1 -41 6 -43 19
-2 9 2 17 8 17 6 0 9 -3 7 -7z m-87 -28 c-7 -9 -1 -19 22 -39 17 -14 27 -26
21 -26 -7 0 -18 7 -27 15 -8 8 -23 15 -33 15 -10 0 -14 3 -8 8 6 4 10 17 9 29
-1 14 3 20 13 16 9 -4 10 -9 3 -18z m550 1 c0 3 6 1 14 -6 10 -7 38 -10 84 -6
l70 5 6 -37 c8 -50 8 -90 -1 -95 -5 -3 -9 17 -10 44 -2 78 -3 79 -37 72 -17
-3 -36 -10 -43 -15 -7 -5 -20 -8 -30 -5 -13 3 -12 5 7 7 19 2 15 4 -15 10 -22
4 -45 4 -50 0 -6 -5 -15 1 -22 16 -10 21 -9 23 8 13 10 -5 19 -7 19 -3z m-56
-30 c-3 -15 -8 -25 -11 -23 -2 3 -1 17 3 31 3 15 8 25 11 23 2 -3 1 -17 -3
-31z m-454 14 c0 -5 -4 -10 -10 -10 -5 0 -10 5 -10 10 0 6 5 10 10 10 6 0 10
-4 10 -10z m50 -20 c-20 -13 -33 -13 -25 0 3 6 14 10 23 10 15 0 15 -2 2 -10z
m427 -12 c-3 -8 -6 -5 -6 6 -1 11 2 17 5 13 3 -3 4 -12 1 -19z m160 6 c-3 -3
-12 -4 -19 -1 -8 3 -5 6 6 6 11 1 17 -2 13 -5z m-627 -76 c0 -17 -15 -7 -27
18 -12 26 -12 26 7 9 11 -10 20 -22 20 -27z m61 22 c-7 -3 -9 -15 -5 -26 7
-19 6 -19 -8 0 -12 15 -13 23 -4 32 6 6 15 10 20 7 4 -3 3 -9 -3 -13z m417 9
l27 -1 -30 -13 c-16 -7 -33 -11 -37 -8 -12 7 -9 -22 3 -34 7 -7 3 -16 -15 -31
-24 -19 -38 -50 -16 -37 16 10 23 -21 10 -42 -10 -16 -10 -15 -4 6 4 17 3 22
-7 19 -8 -3 -14 -12 -14 -21 0 -8 -4 -19 -8 -23 -4 -4 -7 -19 -7 -33 0 -22
-19 -69 -20 -48 0 25 44 204 53 216 9 12 9 13 0 7 -9 -5 -11 -2 -8 8 3 9 7 23
10 32 3 10 11 14 21 10 9 -3 28 -6 42 -7z m119 -26 c-3 -10 -5 -4 -5 12 0 17
2 24 5 18 2 -7 2 -21 0 -30z m-672 -12 c-2 -2 -11 3 -19 12 -8 8 -12 17 -9 21
3 3 12 -2 19 -12 7 -9 11 -19 9 -21z m655 22 c0 -14 -26 -18 -34 -4 -7 11 0
18 19 18 8 0 15 -6 15 -14z m71 3 c11 6 11 -14 -1 -41 -6 -13 -9 -15 -9 -5 -1
8 -4 26 -6 40 -3 14 -3 19 1 12 3 -6 10 -10 15 -6z m-694 -21 c0 -8 -4 -12 -9
-9 -5 3 -6 10 -3 15 9 13 12 11 12 -6z m125 -3 c3 -9 2 -26 -2 -37 -6 -15 -8
-10 -8 18 0 40 3 47 10 19z m-196 -38 c-4 -9 -9 -15 -11 -12 -3 3 -3 13 1 22
4 9 9 15 11 12 3 -3 3 -13 -1 -22z m74 11 c0 -2 -7 -5 -15 -9 -9 -3 -15 0 -15
9 0 9 6 12 15 9 8 -4 15 -7 15 -9z m256 -15 c8 0 13 -4 10 -8 -2 -4 9 -14 25
-21 17 -7 28 -15 26 -18 -3 -2 -23 5 -46 16 -46 24 -55 26 -45 9 4 -7 3 -8 -4
-4 -7 4 -12 18 -12 32 0 23 1 24 16 10 8 -9 22 -16 30 -16z m326 10 c19 0 24
-15 8 -25 -19 -12 -50 6 -50 28 0 16 3 18 12 9 7 -7 20 -12 30 -12z m62 5 c-4
-8 -8 -15 -10 -15 -2 0 -4 7 -4 15 0 8 4 15 10 15 5 0 7 -7 4 -15z m-684 1 c0
-18 -22 -56 -29 -52 -10 7 9 56 22 56 4 0 7 -2 7 -4z m234 -20 c-3 -8 -1 -24
6 -35 9 -19 8 -21 -15 -21 -28 0 -30 5 -12 43 12 27 31 39 21 13z m-174 0 c0
-2 -9 -6 -20 -9 -11 -3 -18 -1 -14 4 5 9 34 13 34 5z m50 -14 c0 -10 -64 -29
-81 -23 -8 2 6 10 31 16 25 7 46 13 48 14 1 0 2 -2 2 -7z m555 -24 c-4 -18
-11 -39 -16 -48 -5 -8 -13 -34 -19 -57 -13 -52 -19 -55 -17 -9 1 19 4 33 7 31
3 -2 13 23 24 56 20 64 32 79 21 27z m94 2 c0 -23 -1 -23 -9 -5 -8 19 -9 19
-9 1 -1 -15 -4 -16 -16 -6 -24 20 -18 40 10 38 20 -2 25 -8 24 -28z m-575 -15
c-4 -8 -8 -15 -10 -15 -2 0 -4 7 -4 15 0 8 4 15 10 15 5 0 7 -7 4 -15z m-209
-5 c7 -12 -2 -12 -30 0 -19 8 -19 9 2 9 12 1 25 -3 28 -9z m645 -12 c0 -11 -4
-16 -10 -13 -6 3 -10 -4 -10 -18 0 -13 -6 -24 -12 -24 -7 0 -13 10 -13 23 0
12 3 20 8 17 4 -2 7 4 7 15 0 10 7 19 15 19 8 0 15 -9 15 -19z m-274 -3 c-3
-8 -1 -15 5 -15 7 0 8 -7 4 -17 -7 -16 -9 -28 -14 -76 -1 -4 -11 1 -23 13 -12
11 -32 20 -45 20 -13 0 -23 5 -23 10 0 6 7 10 16 10 8 0 13 4 10 8 -8 14 9 32
35 37 13 3 25 9 27 15 2 5 6 10 9 10 3 0 3 -7 -1 -15z m64 -42 c13 -15 13 -26
1 -18 -6 3 -14 -3 -20 -12 -9 -16 -12 -16 -21 -3 -16 24 -12 32 11 25 l22 -7
-22 30 c-26 38 -27 56 -1 22 11 -14 24 -30 30 -37z m-275 28 c-3 -6 -17 -8
-31 -5 -14 4 -24 2 -24 -5 0 -6 -7 -8 -17 -4 -13 5 -12 8 8 15 13 5 32 7 41 4
10 -2 18 1 18 7 0 6 3 8 6 4 3 -3 3 -10 -1 -16z m611 -3 c0 -13 4 -36 7 -53 6
-27 6 -26 -7 5 -16 39 -20 70 -8 70 4 0 7 -10 8 -22z m-571 -9 c-1 -11 -8 -25
-16 -30 -11 -7 -9 -9 8 -9 31 0 53 -10 53 -25 0 -7 13 -18 29 -25 16 -6 38
-21 48 -32 15 -17 11 -17 -23 5 -23 14 -57 30 -75 36 -21 6 -26 10 -14 10 17
1 17 3 5 11 -21 14 -30 12 -30 -5 0 -8 -7 -15 -16 -15 -10 0 -12 4 -7 13 4 6
8 17 8 22 1 13 24 65 28 65 2 0 3 -9 2 -21z m72 5 c-3 -3 -12 -4 -19 -1 -8 3
-5 6 6 6 11 1 17 -2 13 -5z m287 -31 c-8 -35 -14 -42 -14 -19 0 12 -5 16 -15
12 -19 -7 -19 -1 1 18 24 24 35 19 28 -11z m173 5 c-3 -8 -6 -5 -6 6 -1 11 2
17 5 13 3 -3 4 -12 1 -19z m-577 3 c0 -6 -4 -12 -8 -15 -5 -3 -9 1 -9 9 0 8 4
15 9 15 4 0 8 -4 8 -9z m-80 -11 c0 -5 -2 -10 -4 -10 -3 0 -8 5 -11 10 -3 6
-1 10 4 10 6 0 11 -4 11 -10z m-134 -26 c-3 -9 4 -25 19 -40 26 -26 32 -44 15
-44 -5 0 -10 -5 -10 -11 0 -5 4 -8 9 -4 6 3 14 -2 19 -11 5 -10 23 -17 41 -18
34 -1 34 -1 21 -31 -7 -16 -9 -16 -9 -4 -1 20 -28 33 -34 16 -2 -7 -14 -1 -30
16 -20 19 -26 33 -22 50 4 15 1 28 -8 36 -22 18 -27 1 -18 -57 4 -29 7 -52 5
-52 -21 0 -34 17 -33 44 1 30 1 30 9 6 5 -17 7 -6 6 35 0 55 7 85 21 85 3 0 2
-7 -1 -16z m679 6 c3 -5 1 -10 -4 -10 -6 0 -11 5 -11 10 0 6 2 10 4 10 3 0 8
-4 11 -10z m135 -16 c0 -8 5 -14 10 -14 6 0 10 -8 10 -17 -1 -15 -4 -14 -20 6
-21 24 -28 57 -10 46 6 -3 10 -13 10 -21z m-318 -6 c-7 -7 -12 -8 -12 -2 0 14
12 26 19 19 2 -3 -1 -11 -7 -17z m-9 -51 c-3 -12 -7 -29 -11 -37 -6 -16 -8
-28 -11 -70 l-1 -25 -15 29 c-19 35 -19 57 -1 33 13 -17 14 -17 14 5 -1 13 2
39 6 58 6 32 2 28 -10 -9 -4 -11 -7 -10 -18 4 -12 16 -13 16 -19 1 -4 -9 -2
-16 3 -16 6 0 10 -5 10 -11 0 -6 -6 -9 -12 -6 -7 2 -12 13 -11 23 1 10 -4 22
-10 26 -7 4 -1 6 13 6 14 -1 28 -7 32 -13 4 -5 8 5 8 24 0 33 1 33 19 17 12
-11 17 -25 14 -39z m107 -3 c0 -3 -7 -1 -15 6 -8 7 -15 17 -15 22 0 5 7 3 15
-6 8 -8 15 -18 15 -22z m-455 16 c-3 -5 -3 -15 1 -22 5 -8 10 -6 15 8 7 17 8
17 8 1 1 -10 6 -15 11 -12 6 3 10 4 10 0 0 -3 -10 -9 -22 -14 -17 -6 -25 -4
-30 8 -10 24 -9 41 3 41 5 0 7 -4 4 -10z m409 -16 c3 -8 -1 -14 -8 -14 -16 0
-38 24 -30 33 9 9 32 -3 38 -19z m147 -16 c-3 -22 -6 -27 -9 -14 -3 15 -6 16
-13 5 -5 -9 -9 -10 -9 -2 0 10 26 43 34 43 1 0 0 -15 -3 -32z m-48 -15 c16
-15 -15 -31 -44 -23 -27 8 -33 6 -30 -12 0 -5 -12 -8 -29 -8 -17 0 -34 -7 -40
-17 -11 -17 -11 -17 -6 0 3 10 6 21 6 23 0 2 8 4 18 4 10 0 27 6 38 14 11 8
31 16 44 19 14 2 28 5 31 6 3 0 9 -2 12 -6z m-484 -49 c-5 -7 -11 -26 -12 -43
-1 -17 -8 -33 -15 -36 -7 -2 -16 -13 -20 -24 -6 -18 -10 -16 -40 20 -19 22
-31 45 -28 52 3 7 7 3 11 -10 4 -13 11 -20 16 -17 5 3 9 0 9 -7 0 -9 4 -9 15
1 8 6 18 9 23 6 13 -8 24 37 15 60 -4 12 -3 15 5 10 8 -4 12 0 12 11 0 15 2
15 10 3 5 -9 5 -19 -1 -26z m-136 -9 c-7 -21 -13 -19 -13 6 0 11 4 18 10 14 5
-3 7 -12 3 -20z m564 -7 c-3 -7 -5 -2 -5 12 0 14 2 19 5 13 2 -7 2 -19 0 -25z
m84 13 c7 10 8 7 3 -11 -4 -14 -8 -32 -8 -41 0 -23 -19 -14 -33 18 -15 31 -7
49 14 32 12 -10 16 -10 24 2z m-115 -47 c-5 -13 -10 -14 -18 -6 -6 6 -8 18 -4
28 5 13 10 14 18 6 6 -6 8 -18 4 -28z m-42 -42 c-6 -14 -8 -13 -14 8 -4 14
-12 24 -18 23 -6 -2 -9 4 -6 11 4 12 10 10 26 -6 12 -12 17 -26 12 -36z m93
32 c-3 -3 -12 -4 -19 -1 -8 3 -5 6 6 6 11 1 17 -2 13 -5z m11 -25 c-2 -6 -8
-10 -13 -10 -5 0 -11 4 -13 10 -2 6 4 11 13 11 9 0 15 -5 13 -11z m-490 -44
c-6 -14 -13 -24 -14 -22 -6 6 9 47 17 47 5 0 3 -11 -3 -25z"/>
<path d="M5511 7090 c-33 -46 -56 -98 -48 -107 4 -3 52 4 107 16 130 27 241
28 313 1 48 -18 78 -35 184 -108 l34 -23 -13 24 c-7 13 -40 60 -72 105 -84
116 -109 127 -286 126 -79 0 -147 -6 -164 -13 -24 -10 -27 -9 -22 4 10 26 -3
17 -33 -25z m69 -24 c0 -2 -7 -7 -16 -10 -8 -3 -12 -2 -9 4 6 10 25 14 25 6z"/>
<path d="M4972 6823 c-49 -24 -32 -27 24 -4 27 11 40 20 29 20 -11 0 -35 -7
-53 -16z"/>
<path d="M5713 6813 c9 -2 25 -2 35 0 9 3 1 5 -18 5 -19 0 -27 -2 -17 -5z"/>
<path d="M5599 6788 c-15 -28 -40 -121 -34 -127 7 -7 9 -2 32 77 21 75 22 87
2 50z"/>
<path d="M5778 6803 c7 -3 16 -2 19 1 4 3 -2 6 -13 5 -11 0 -14 -3 -6 -6z"/>
<path d="M5901 6766 c2 -2 15 -9 29 -15 24 -11 24 -11 6 3 -16 13 -49 24 -35
12z"/>
<path d="M5080 6758 c0 -10 50 -121 50 -112 0 18 -31 104 -41 110 -5 3 -9 4
-9 2z"/>
<path d="M5689 6725 c-45 -23 -155 -132 -145 -143 3 -3 25 13 50 36 78 72 152
98 223 80 37 -9 41 -13 33 -28 -17 -31 -12 -43 14 -36 28 7 49 -14 40 -39 -5
-12 -15 -16 -36 -13 -25 4 -27 2 -22 -16 4 -12 15 -33 25 -47 l18 -26 -72 -13
c-40 -6 -106 -10 -149 -8 -42 1 -74 0 -71 -4 6 -12 154 -10 236 3 86 13 228
47 242 59 6 4 21 10 34 12 26 3 42 28 19 28 -7 0 -44 22 -80 49 -91 66 -228
131 -276 131 -20 -1 -58 -12 -83 -25z"/>
<path d="M4841 6600 c-1 -27 37 -79 71 -96 40 -21 140 -46 132 -33 -3 5 -13 9
-22 9 -9 0 -40 11 -68 24 -46 22 -68 42 -101 92 -9 15 -12 16 -12 4z"/>
<path d="M5897 6433 c-4 -3 -46 -9 -94 -13 l-88 -7 75 -1 c41 0 91 6 110 13
19 7 28 14 19 14 -9 1 -19 -2 -22 -6z"/>
<path d="M5085 6276 c-46 -43 -48 -47 -42 -88 4 -31 14 -51 37 -71 42 -38 52
-26 12 13 -25 24 -32 38 -32 69 0 34 6 45 42 75 23 20 39 38 36 41 -3 3 -26
-15 -53 -39z"/>
<path d="M5354 6180 l1 -45 -40 3 c-23 2 -48 -3 -59 -11 -17 -12 -12 -14 44
-14 55 0 63 3 73 24 8 18 7 31 -5 56 l-15 32 1 -45z"/>
<path d="M5675 6020 c3 -5 8 -10 11 -10 2 0 4 5 4 10 0 6 -5 10 -11 10 -5 0
-7 -4 -4 -10z"/>
<path d="M5743 5956 c23 -29 44 -52 45 -50 7 5 -58 92 -72 97 -9 4 4 -18 27
-47z"/>
<path d="M5187 5961 c-72 -5 -91 -10 -103 -25 -8 -11 -14 -26 -14 -34 0 -10
-8 -12 -27 -8 -24 5 -25 5 -10 -5 11 -6 45 -13 78 -16 49 -5 59 -9 59 -24 0
-11 -6 -19 -14 -19 -17 0 -26 -21 -26 -60 0 -76 200 -114 342 -65 47 17 178
129 165 142 -4 3 -14 0 -24 -8 -10 -8 -14 -9 -10 -2 4 7 34 24 67 39 33 15 65
33 72 42 8 9 -7 5 -37 -10 -44 -22 -57 -25 -105 -18 -66 9 -154 32 -232 60
-32 11 -65 19 -75 18 -10 -1 -58 -4 -106 -7z m0 -25 c-3 -8 -1 -16 6 -19 6 -2
4 -6 -6 -10 -13 -5 -17 -1 -17 18 0 14 5 25 11 25 6 0 9 -6 6 -14z m186 -10
c18 -14 7 -33 -12 -21 -5 3 -12 1 -16 -4 -3 -6 -13 -7 -21 -4 -13 5 -10 9 12
20 29 13 29 13 -11 8 -29 -4 -36 -3 -25 4 21 15 52 13 73 -3z m-253 -2 c0 -3
-7 -12 -15 -20 -16 -17 -18 -14 -9 10 6 15 24 23 24 10z m37 -26 c-3 -8 -6 -5
-6 6 -1 11 2 17 5 13 3 -3 4 -12 1 -19z m128 12 c3 -6 -1 -7 -9 -4 -18 7 -21
14 -7 14 6 0 13 -4 16 -10z m155 -14 c-7 -7 -14 -6 -21 1 -9 9 -7 12 9 10 14
-1 18 -5 12 -11z m-35 -6 c3 -5 -1 -10 -9 -10 -9 0 -16 5 -16 10 0 6 4 10 9
10 6 0 13 -4 16 -10z m105 -10 c18 -12 2 -12 -25 0 -13 6 -15 9 -5 9 8 0 22
-4 30 -9z m-132 -20 c46 -11 93 -20 105 -21 65 -3 -75 -21 -173 -22 l-115 -2
-3 33 -3 32 53 0 c29 0 90 -9 136 -20z m97 10 c25 -11 -1 -11 -35 0 -20 6 -21
8 -5 8 11 0 29 -3 40 -8z m70 0 c3 -5 1 -10 -4 -10 -6 0 -11 5 -11 10 0 6 2
10 4 10 3 0 8 -4 11 -10z m36 -58 c-13 -25 -69 -72 -84 -71 -7 0 -2 5 11 11
13 6 21 17 18 24 -3 7 0 11 7 8 7 -2 20 10 30 27 19 34 36 34 18 1z m-31 -2
c0 -5 -12 -10 -27 -9 -25 0 -26 1 -8 9 27 12 35 12 35 0z m-60 -10 c0 -5 -8
-10 -17 -10 -15 0 -16 2 -3 10 19 12 20 12 20 0z m-300 -10 c-8 -5 -11 -12 -7
-16 4 -4 13 -2 19 4 7 7 23 12 38 11 14 0 19 -3 12 -6 -10 -4 -9 -8 5 -18 19
-14 33 -11 33 6 0 6 -5 7 -12 3 -6 -4 -8 -3 -5 3 10 16 87 1 87 -17 0 -5 7 -7
17 -3 13 5 15 2 11 -15 -4 -16 -2 -22 10 -22 23 0 11 -6 -25 -13 -19 -4 -33
-2 -33 3 0 6 7 10 15 10 8 0 15 4 15 9 0 4 -11 6 -25 3 -14 -2 -25 -8 -25 -13
0 -5 -5 -9 -11 -9 -5 0 -7 5 -4 10 3 6 -1 10 -10 10 -9 0 -14 -4 -11 -8 6 -10
-60 -9 -70 1 -4 4 -4 10 1 15 4 4 10 1 12 -5 5 -15 33 -18 33 -4 0 16 -40 24
-55 11 -10 -9 -20 -7 -40 6 -25 16 -29 39 -7 39 5 0 14 3 18 8 4 4 12 7 18 7
6 0 4 -4 -4 -10z m255 0 c3 -6 -1 -13 -9 -16 -20 -8 -11 -24 14 -24 10 0 21
-3 23 -7 3 -5 -12 -8 -33 -8 -42 -1 -50 21 -15 43 18 11 16 12 -14 6 -23 -4
-31 -3 -27 5 9 14 53 14 61 1z"/>
<path d="M5162 5764 c10 -10 20 -15 24 -12 3 4 -5 12 -18 18 -22 12 -22 12 -6
-6z"/>
<path d="M8330 6579 c0 -6 -7 -9 -15 -5 -8 3 -15 1 -15 -5 0 -6 -6 -9 -14 -6
-7 3 -19 0 -25 -6 -8 -8 -11 -8 -11 1 0 7 -4 12 -10 12 -5 0 -10 -7 -10 -17 0
-14 -2 -14 -20 2 -20 18 -20 18 -5 -26 9 -24 30 -59 48 -77 44 -46 128 -109
152 -115 l20 -5 -20 -1 c-16 -1 -17 -3 -5 -11 9 -6 15 -28 15 -67 1 -44 9 -73
33 -120 53 -103 105 -126 231 -99 76 16 156 59 189 101 13 16 23 21 33 14 27
-17 32 -9 8 14 -61 60 -279 157 -350 157 -36 0 -18 8 92 41 87 26 123 32 222
34 65 1 120 5 124 9 13 12 -34 50 -104 83 -96 44 -208 70 -389 88 -178 18
-174 18 -174 4z m338 -313 c77 -26 202 -92 202 -106 0 -19 -95 -81 -146 -96
-29 -8 -81 -16 -114 -16 -50 -1 -66 3 -83 20 l-21 22 21 22 c22 24 43 61 43
75 0 4 -15 8 -32 8 -24 0 -33 5 -36 19 -5 23 14 36 51 36 20 0 30 6 34 20 3
11 7 20 8 20 2 0 35 -11 73 -24z"/>
<path d="M8117 6523 c15 -42 90 -143 106 -143 5 0 -6 19 -25 43 -19 23 -44 59
-57 80 -24 40 -34 48 -24 20z"/>
<path d="M7710 6526 c0 -2 28 -13 63 -26 34 -12 80 -35 101 -51 44 -32 65 -30
26 2 -50 41 -190 96 -190 75z"/>
<path d="M7642 6508 c-13 -13 -16 -38 -6 -38 7 0 44 40 44 47 0 8 -27 2 -38
-9z"/>
<path d="M9540 6438 c-17 -6 -20 -12 -12 -20 8 -8 15 -8 26 1 11 9 22 9 53 -4
72 -30 120 -109 125 -207 4 -79 18 -73 18 7 0 76 -24 136 -73 182 -37 35 -102
54 -137 41z"/>
<path d="M8740 6365 c0 -3 27 -32 60 -65 72 -71 81 -56 11 18 -43 46 -71 64
-71 47z"/>
<path d="M7985 6196 c-26 -24 -70 -54 -97 -67 -41 -19 -62 -39 -42 -39 22 0
120 60 155 96 57 58 46 65 -16 10z"/>
<path d="M8470 6014 c0 -8 78 -42 112 -48 43 -8 138 3 138 15 0 4 -28 6 -62 3
-47 -4 -79 -1 -125 14 -35 11 -63 18 -63 16z"/>
<path d="M8860 6000 c0 -15 5 -20 18 -18 9 2 17 10 17 18 0 8 -8 16 -17 18
-13 2 -18 -3 -18 -18z"/>
<path d="M7981 5693 c-54 -92 -59 -116 -31 -156 25 -35 96 -97 113 -97 5 0
-15 27 -46 59 -40 41 -57 68 -57 86 0 14 18 57 39 95 51 90 35 102 -18 13z"/>
<path d="M8330 5651 c5 -11 15 -23 20 -26 16 -10 12 -35 -10 -71 -21 -32 -21
-32 -55 -18 -41 17 -61 11 -97 -29 -35 -37 -35 -47 -2 -47 15 0 23 4 19 11 -8
13 28 49 49 49 8 0 18 -4 21 -10 14 -23 55 -10 80 27 30 44 31 79 6 111 -24
28 -46 30 -31 3z"/>
<path d="M8712 5578 c3 -17 -79 -94 -157 -148 -114 -79 -277 -130 -412 -130
-49 0 -83 -4 -83 -10 0 -5 17 -11 38 -12 200 -8 413 69 558 205 41 38 76 68
78 66 2 -2 8 -17 14 -34 l11 -30 -2 39 c-1 28 -8 43 -25 54 -21 14 -23 14 -20
0z"/>
<path d="M9447 5513 c-12 -11 -7 -41 7 -46 19 -7 26 1 26 30 0 22 -19 31 -33
16z"/>
<path d="M6352 5375 c2 -55 -4 -208 -12 -340 -26 -411 -19 -506 41 -627 39
-77 80 -122 141 -152 60 -30 124 -34 174 -10 46 22 44 38 -2 19 -121 -50 -258
37 -315 202 -42 119 -43 190 -9 710 8 107 7 172 0 220 -6 37 -13 70 -16 72 -3
3 -4 -40 -2 -94z"/>
<path d="M6709 6551 c11 -7 11 -9 0 -13 -8 -3 -10 -9 -6 -14 4 -5 12 -2 17 6
14 22 12 30 -7 30 -14 0 -15 -2 -4 -9z"/>
<path d="M6750 6543 c0 -14 2 -15 9 -4 5 7 14 10 20 7 6 -4 11 -2 11 3 0 6 -9
11 -20 11 -12 0 -20 -7 -20 -17z"/>
<path d="M6786 6495 c-3 -8 -1 -15 4 -15 6 0 10 7 10 15 0 8 -2 15 -4 15 -2 0
-6 -7 -10 -15z"/>
<path d="M6720 6420 c0 -5 7 -7 15 -4 8 4 15 8 15 10 0 2 -7 4 -15 4 -8 0 -15
-4 -15 -10z"/>
<path d="M6771 6384 c0 -11 3 -14 6 -6 3 7 2 16 -1 19 -3 4 -6 -2 -5 -13z"/>
<path d="M6820 6250 c0 -5 5 -10 11 -10 5 0 7 5 4 10 -3 6 -8 10 -11 10 -2 0
-4 -4 -4 -10z"/>
<path d="M6876 6185 c4 -8 13 -15 21 -15 13 0 13 3 3 15 -7 8 -16 15 -21 15
-5 0 -6 -7 -3 -15z"/>
<path d="M6784 6130 c8 -19 33 -78 56 -130 52 -119 66 -164 89 -290 10 -56 22
-104 26 -108 19 -18 -32 275 -55 316 -22 39 -39 95 -33 106 3 6 3 8 -1 4 -11
-10 -58 81 -50 95 4 7 4 9 -1 5 -4 -4 -16 3 -27 15 -19 22 -19 22 -4 -13z"/>
<path d="M7018 6135 c-3 -13 -2 -24 1 -23 19 2 22 -4 10 -18 -12 -15 -11 -16
9 -10 19 7 22 4 22 -23 0 -40 16 -40 22 -1 3 21 0 34 -11 40 -14 8 -13 9 3 10
20 0 20 0 0 18 -33 31 -51 33 -56 7z"/>
<path d="M6916 6115 c4 -8 10 -15 15 -15 4 0 6 7 3 15 -4 8 -10 15 -15 15 -4
0 -6 -7 -3 -15z"/>
<path d="M6946 6083 c-9 -9 -7 -33 3 -33 12 0 22 28 12 34 -5 3 -11 3 -15 -1z"/>
<path d="M7031 6054 c0 -11 3 -14 6 -6 3 7 2 16 -1 19 -3 4 -6 -2 -5 -13z"/>
<path d="M6955 6000 c3 -5 8 -10 11 -10 2 0 4 5 4 10 0 6 -5 10 -11 10 -5 0
-7 -4 -4 -10z"/>
<path d="M6715 5845 c25 -63 35 -130 35 -250 0 -160 15 -219 65 -264 20 -17
48 -32 63 -32 100 -6 158 19 254 107 42 39 81 66 105 72 l38 10 -44 1 c-39 1
-49 -4 -115 -64 -110 -98 -200 -127 -267 -88 -52 31 -66 80 -72 253 -6 160
-22 235 -55 262 -14 11 -15 10 -7 -7z"/>
<path d="M10091 6118 c7 -12 15 -47 19 -78 7 -53 7 -54 9 -12 1 40 -21 112
-34 112 -3 0 0 -10 6 -22z"/>
<path d="M10575 5905 c-129 -70 -175 -171 -115 -255 18 -25 28 -30 61 -30 24
0 39 5 39 13 1 6 10 -5 20 -25 23 -43 46 -52 105 -44 47 7 80 36 90 78 4 15
14 33 23 40 13 11 15 10 9 -4 -11 -30 7 -20 31 17 48 75 19 139 -83 186 -80
36 -141 44 -180 24z m-45 -136 c8 -13 8 -24 2 -32 -6 -7 -12 -23 -14 -37 -4
-34 -43 -40 -52 -8 -9 37 -7 73 6 86 18 18 46 14 58 -9z"/>
<path d="M10957 4923 c-11 -10 -8 -131 3 -138 6 -4 10 22 10 69 0 76 -1 82
-13 69z"/>
<path d="M9995 4870 c20 -22 82 -46 138 -54 56 -7 45 10 -15 24 -29 7 -70 21
-90 31 -47 24 -56 24 -33 -1z"/>
<path d="M7863 4615 c4 -259 10 -402 17 -413 8 -13 10 15 6 107 -3 68 -6 254
-6 413 0 212 -3 288 -12 288 -8 0 -10 -98 -5 -395z"/>
<path d="M3690 3970 c0 -6 7 -10 15 -10 8 0 15 2 15 4 0 2 -7 6 -15 10 -8 3
-15 1 -15 -4z"/>
<path d="M3660 3964 c0 -11 43 -45 48 -39 3 3 -4 14 -16 25 -22 20 -32 25 -32
14z"/>
<path d="M3765 3397 c-50 -20 -139 -74 -164 -101 -26 -28 -26 -62 3 -129 15
-37 36 -50 36 -22 0 8 4 15 9 15 11 0 21 -25 21 -56 0 -13 10 -34 21 -45 18
-18 30 -21 77 -17 53 5 82 23 94 60 2 6 26 12 52 12 39 1 52 6 72 29 35 41 40
74 18 115 -40 74 -75 113 -120 133 -51 21 -76 23 -119 6z"/>
<path d="M4410 3096 c0 -8 5 -18 10 -21 6 -3 10 3 10 14 0 12 -4 21 -10 21 -5
0 -10 -6 -10 -14z"/>
<path d="M4490 3044 c0 -10 -6 -14 -15 -10 -8 3 -15 1 -15 -5 0 -6 -9 -8 -22
-4 -21 7 -22 6 -7 -10 15 -15 20 -15 51 -2 36 15 65 43 32 30 -12 -4 -15 -3
-10 5 4 7 2 12 -3 12 -6 0 -11 -7 -11 -16z"/>
<path d="M5940 1710 c8 -5 20 -10 25 -10 6 0 3 5 -5 10 -8 5 -19 10 -25 10 -5
0 -3 -5 5 -10z"/>
<path d="M5670 700 c0 -5 5 -10 10 -10 6 0 10 5 10 10 0 6 -4 10 -10 10 -5 0
-10 -4 -10 -10z"/>
<path d="M5572 8018 c2 -6 10 -14 16 -16 7 -2 10 2 6 12 -7 18 -28 22 -22 4z"/>
<path d="M5435 8010 c-3 -5 -1 -10 4 -10 6 0 11 5 11 10 0 6 -2 10 -4 10 -3 0
-8 -4 -11 -10z"/>
<path d="M5435 7950 c3 -5 8 -10 11 -10 2 0 4 5 4 10 0 6 -5 10 -11 10 -5 0
-7 -4 -4 -10z"/>
<path d="M5540 7924 c0 -8 5 -12 10 -9 6 3 10 10 10 16 0 5 -4 9 -10 9 -5 0
-10 -7 -10 -16z"/>
<path d="M5628 7933 c7 -3 16 -2 19 1 4 3 -2 6 -13 5 -11 0 -14 -3 -6 -6z"/>
<path d="M5460 7909 c0 -5 5 -7 10 -4 6 3 10 8 10 11 0 2 -4 4 -10 4 -5 0 -10
-5 -10 -11z"/>
<path d="M5576 7905 c4 -8 8 -15 10 -15 2 0 4 7 4 15 0 8 -4 15 -10 15 -5 0
-7 -7 -4 -15z"/>
<path d="M5700 7901 c0 -6 5 -13 10 -16 6 -3 10 1 10 9 0 9 -4 16 -10 16 -5 0
-10 -4 -10 -9z"/>
<path d="M5481 7884 c0 -11 3 -14 6 -6 3 7 2 16 -1 19 -3 4 -6 -2 -5 -13z"/>
<path d="M5744 7865 c4 -24 16 -30 16 -7 0 12 -4 22 -9 22 -5 0 -8 -7 -7 -15z"/>
<path d="M5780 7874 c0 -10 28 -34 39 -34 6 0 11 -5 11 -11 0 -5 5 -7 10 -4 6
3 -3 17 -19 31 -29 24 -41 29 -41 18z"/>
<path d="M5565 7850 c-3 -5 -1 -10 4 -10 6 0 11 5 11 10 0 6 -2 10 -4 10 -3 0
-8 -4 -11 -10z"/>
<path d="M5708 7853 c7 -3 16 -2 19 1 4 3 -2 6 -13 5 -11 0 -14 -3 -6 -6z"/>
<path d="M5765 7830 c-3 -5 -1 -10 4 -10 6 0 11 5 11 10 0 6 -2 10 -4 10 -3 0
-8 -4 -11 -10z"/>
<path d="M6000 7765 c0 -12 25 -32 37 -28 17 6 123 -51 168 -91 75 -66 116
-111 145 -156 16 -25 34 -51 40 -58 6 -7 9 -16 6 -21 -3 -5 0 -11 7 -14 8 -3
24 -34 37 -69 52 -138 92 -196 203 -293 15 -13 16 -19 6 -31 -7 -9 -8 -14 -1
-14 6 0 12 6 15 13 4 10 7 10 18 0 18 -18 39 -16 39 2 0 8 -4 15 -10 15 -5 0
-10 10 -11 23 0 18 -2 19 -7 4 -6 -14 -20 -4 -80 58 -59 61 -72 80 -67 98 4
14 3 17 -2 10 -6 -9 -20 11 -42 60 -62 133 -93 192 -128 239 -55 76 -178 185
-246 217 -62 30 -127 48 -127 36z"/>
<path d="M6160 7650 c0 -5 5 -10 11 -10 5 0 7 5 4 10 -3 6 -8 10 -11 10 -2 0
-4 -4 -4 -10z"/>
<path d="M6070 7626 c0 -2 7 -6 15 -10 8 -3 15 -1 15 4 0 6 -7 10 -15 10 -8 0
-15 -2 -15 -4z"/>
<path d="M6330 7380 c0 -5 5 -10 11 -10 5 0 7 5 4 10 -3 6 -8 10 -11 10 -2 0
-4 -4 -4 -10z"/>
<path d="M6630 7369 c0 -7 -10 -9 -27 -5 -21 5 -24 4 -13 -4 22 -15 50 -12 50
5 0 8 -2 15 -5 15 -3 0 -5 -5 -5 -11z"/>
<path d="M6170 7321 c0 -10 27 -41 36 -41 7 0 -15 38 -26 45 -6 3 -10 2 -10
-4z"/>
<path d="M6723 7291 c0 -11 5 -18 9 -15 4 3 5 11 1 19 -7 21 -12 19 -10 -4z"/>
<path d="M6770 7220 c0 -5 5 -10 10 -10 6 0 10 5 10 10 0 6 -4 10 -10 10 -5 0
-10 -4 -10 -10z"/>
<path d="M6657 7209 c7 -7 15 -10 18 -7 3 3 -2 9 -12 12 -14 6 -15 5 -6 -5z"/>
<path d="M6848 7174 c-4 -4 -5 -11 -2 -15 7 -13 34 -11 34 2 0 5 -4 8 -9 5 -5
-4 -11 -1 -13 5 -2 5 -7 7 -10 3z"/>
<path d="M6630 7164 c0 -6 4 -14 9 -19 5 -6 11 -19 13 -30 3 -17 4 -18 10 -3
4 10 -1 25 -13 39 -10 12 -19 18 -19 13z"/>
<path d="M6729 7148 c-1 -7 -1 -16 0 -20 0 -5 -9 -8 -21 -8 -12 0 -18 -3 -14
-7 12 -12 31 -11 44 3 7 8 8 14 3 14 -6 0 -8 7 -5 15 4 8 3 15 0 15 -3 0 -7
-6 -7 -12z"/>
<path d="M6500 7141 c0 -5 5 -13 10 -16 6 -3 10 -2 10 4 0 5 -4 13 -10 16 -5
3 -10 2 -10 -4z"/>
<path d="M6810 7110 c8 -5 20 -10 25 -10 6 0 3 5 -5 10 -8 5 -19 10 -25 10 -5
0 -3 -5 5 -10z"/>
<path d="M6775 7090 c-3 -5 -1 -10 4 -10 6 0 11 5 11 10 0 6 -2 10 -4 10 -3 0
-8 -4 -11 -10z"/>
<path d="M6832 7074 c10 -10 20 -15 24 -12 3 4 -5 12 -18 18 -22 12 -22 12 -6
-6z"/>
<path d="M6803 7067 c3 -9 1 -18 -6 -20 -7 -2 -2 -2 10 -1 12 2 23 -1 25 -8 2
-6 10 -9 17 -7 7 3 -1 14 -20 28 -23 17 -31 20 -26 8z"/>
<path d="M6755 7020 c-5 -8 -2 -16 9 -22 9 -5 16 -16 16 -23 0 -8 6 -15 14
-15 7 0 20 -10 29 -22 8 -13 18 -19 23 -14 5 5 4 11 -3 13 -7 3 -13 11 -13 19
0 8 -7 14 -16 14 -9 0 -14 7 -12 16 2 8 8 14 13 12 6 -2 9 -6 8 -10 -2 -5 7
-8 20 -8 16 0 18 3 8 9 -7 5 -10 14 -7 20 5 7 -2 11 -18 11 -13 0 -26 -6 -29
-12 -3 -9 -9 -7 -19 6 -12 15 -17 16 -23 6z"/>
<path d="M6560 6989 c0 -11 4 -18 10 -14 5 3 7 12 3 20 -7 21 -13 19 -13 -6z"/>
<path d="M6610 6986 c0 -9 5 -16 10 -16 6 0 10 4 10 9 0 6 -4 13 -10 16 -5 3
-10 -1 -10 -9z"/>
<path d="M6692 6960 c-13 -21 -10 -23 26 -14 12 4 22 11 22 16 0 5 -5 6 -11 2
-6 -3 -14 -2 -18 4 -4 7 -11 4 -19 -8z"/>
<path d="M6637 6963 c-12 -11 -8 -23 9 -23 8 0 22 7 30 15 9 8 11 15 5 15 -5
0 -13 -4 -16 -10 -3 -5 -11 -10 -16 -10 -6 0 -7 5 -4 10 7 11 2 13 -8 3z"/>
<path d="M6876 6952 c-3 -5 1 -9 9 -9 8 0 15 4 15 9 0 4 -4 8 -9 8 -6 0 -12
-4 -15 -8z"/>
<path d="M6560 6946 c0 -9 40 -13 46 -5 3 5 -6 9 -20 9 -14 0 -26 -2 -26 -4z"/>
<path d="M6748 6943 c-10 -2 -18 -8 -18 -13 0 -10 38 -1 46 11 5 9 1 10 -28 2z"/>
<path d="M6688 6883 c6 -2 18 -2 25 0 6 3 1 5 -13 5 -14 0 -19 -2 -12 -5z"/>
<path d="M6620 6870 c0 -5 5 -10 10 -10 6 0 10 5 10 10 0 6 -4 10 -10 10 -5 0
-10 -4 -10 -10z"/>
<path d="M6775 6860 c-3 -5 -1 -10 4 -10 6 0 11 5 11 10 0 6 -2 10 -4 10 -3 0
-8 -4 -11 -10z"/>
<path d="M6872 6839 c15 -27 28 -39 43 -39 6 1 2 7 -7 14 -25 18 -22 29 5 21
15 -5 19 -4 12 3 -5 6 -23 14 -38 18 -28 6 -28 6 -15 -17z"/>
<path d="M6814 6835 c-6 -16 40 -68 50 -57 11 10 6 22 -9 22 -9 0 -15 9 -15
25 0 28 -17 34 -26 10z"/>
<path d="M6650 6805 c-11 -13 -10 -14 4 -9 9 3 16 10 16 15 0 13 -6 11 -20 -6z"/>
<path d="M6686 6805 c-3 -9 0 -15 9 -15 16 0 20 16 6 24 -5 3 -11 -1 -15 -9z"/>
<path d="M6740 6804 c0 -8 5 -12 10 -9 6 3 10 10 10 16 0 5 -4 9 -10 9 -5 0
-10 -7 -10 -16z"/>
<path d="M6792 6791 c-10 -6 -10 -10 3 -21 13 -11 15 -9 15 9 0 24 0 24 -18
12z"/>
<path d="M6600 6770 c0 -5 5 -10 10 -10 6 0 10 5 10 10 0 6 -4 10 -10 10 -5 0
-10 -4 -10 -10z"/>
<path d="M6665 6770 c-3 -5 -2 -10 4 -10 5 0 13 5 16 10 3 6 2 10 -4 10 -5 0
-13 -4 -16 -10z"/>
<path d="M6717 6761 c-4 -17 -3 -21 5 -13 5 5 8 16 6 23 -3 8 -7 3 -11 -10z"/>
<path d="M6780 6729 c0 -7 -10 -9 -24 -5 -14 3 -28 2 -31 -4 -10 -16 51 -12
65 5 9 10 9 15 1 15 -6 0 -11 -5 -11 -11z"/>
<path d="M6850 6712 c0 -5 7 -13 16 -16 10 -4 14 -1 12 6 -5 15 -28 23 -28 10z"/>
<path d="M6810 6690 c0 -5 5 -10 10 -10 6 0 10 5 10 10 0 6 -4 10 -10 10 -5 0
-10 -4 -10 -10z"/>
<path d="M6850 6670 c0 -5 4 -10 9 -10 6 0 13 5 16 10 3 6 -1 10 -9 10 -9 0
-16 -4 -16 -10z"/>
<path d="M6793 6657 c0 -7 9 -14 19 -14 11 -1 18 3 15 10 -5 17 -34 21 -34 4z"/>
<path d="M6740 3559 c17 -28 42 -66 55 -83 33 -44 139 -224 179 -304 29 -60
58 -130 125 -312 33 -90 24 -38 -15 83 -64 199 -136 339 -281 549 -80 117
-111 150 -63 67z"/>
<path d="M8997 2775 c-5 -209 -29 -397 -97 -779 -23 -129 -50 -414 -50 -533
l0 -83 -72 0 c-99 0 -285 17 -387 36 -46 8 -85 13 -88 11 -12 -13 215 -43 468
-63 l76 -5 6 -212 c7 -240 42 -517 66 -525 11 -4 12 3 7 30 -23 124 -48 370
-53 524 l-6 182 94 6 c52 3 175 11 274 17 99 6 182 14 185 16 3 3 -43 3 -101
0 -59 -4 -184 -10 -279 -13 l-172 -7 6 124 c12 213 26 348 56 529 67 401 82
525 87 700 2 96 0 193 -5 215 -6 30 -10 -11 -15 -170z"/>
<path d="M10662 2780 c-7 -25 -19 -70 -28 -100 -8 -30 -44 -167 -79 -305 -155
-605 -182 -805 -192 -1382 -6 -343 -5 -373 10 -373 15 0 17 21 17 208 0 272
16 617 35 768 30 241 59 384 171 843 76 311 86 359 82 373 -3 7 -10 -8 -16
-32z"/>
<path d="M9420 2744 c66 -16 450 -47 615 -49 l200 -3 -180 8 c-99 4 -270 17
-379 29 -176 18 -300 26 -256 15z"/>
<path d="M9353 2625 c0 -22 2 -30 4 -17 2 12 2 30 0 40 -3 9 -5 -1 -4 -23z"/>
<path d="M7233 2608 c24 -72 85 -297 117 -436 63 -274 65 -296 50 -700 -12
-327 -12 -368 4 -501 9 -79 20 -191 23 -248 3 -58 10 -103 16 -103 12 0 3 240
-14 355 -8 58 -9 160 -3 370 15 485 12 553 -31 745 -55 244 -124 477 -152 515
-12 16 -14 16 -10 3z"/>
<path d="M10234 2440 c0 -91 2 -128 3 -82 2 45 2 119 0 165 -1 45 -3 8 -3 -83z"/>
<path d="M9105 2571 c-29 -6 -30 -9 -33 -63 -3 -51 0 -59 22 -73 34 -23 75
-15 99 17 17 23 19 34 11 65 -10 42 -49 63 -99 54z m69 -24 c23 -17 24 -72 1
-97 -40 -44 -95 -12 -95 55 0 23 3 45 7 48 11 12 68 8 87 -6z"/>
<path d="M9352 2285 c-1 -146 2 -265 8 -287 15 -52 86 -126 182 -190 144 -96
196 -114 253 -87 14 6 8 7 -22 3 -33 -4 -55 0 -97 19 -72 33 -203 122 -244
166 -67 71 -66 70 -72 361 l-6 265 -2 -250z"/>
<path d="M10220 2222 c0 -114 -43 -185 -221 -369 -58 -60 -109 -115 -113 -123
-4 -8 51 44 122 117 167 169 213 242 220 349 2 41 2 74 -2 74 -3 0 -6 -22 -6
-48z"/>
<path d="M9067 1808 c-32 -43 -39 -78 -26 -117 18 -50 72 -67 116 -36 26 18
47 77 39 111 -6 22 -72 74 -95 74 -6 0 -21 -15 -34 -32z m111 -65 c4 -50 -22
-83 -65 -83 -61 0 -83 70 -43 136 l21 33 42 -22 c38 -20 42 -26 45 -64z"/>
<path d="M4222 1674 c10 -10 20 -16 22 -13 3 3 -5 11 -17 18 -21 13 -21 12 -5
-5z"/>
<path d="M4365 1660 c10 -11 20 -18 23 -16 5 6 -23 36 -34 36 -4 0 1 -9 11
-20z"/>
<path d="M4400 1626 c0 -2 9 -6 20 -9 11 -3 20 -1 20 4 0 5 -9 9 -20 9 -11 0
-20 -2 -20 -4z"/>
<path d="M4455 1610 c-3 -5 -1 -10 4 -10 6 0 11 5 11 10 0 6 -2 10 -4 10 -3 0
-8 -4 -11 -10z"/>
<path d="M4531 1534 c0 -11 3 -14 6 -6 3 7 2 16 -1 19 -3 4 -6 -2 -5 -13z"/>
<path d="M4495 1521 c-3 -5 -1 -12 5 -16 5 -3 10 1 10 9 0 18 -6 21 -15 7z"/>
<path d="M4434 1508 c12 -7 21 -7 28 0 6 6 0 10 -18 10 -23 0 -24 -2 -10 -10z"/>
<path d="M4520 1490 c0 -15 5 -20 18 -18 9 2 17 10 17 18 0 8 -8 16 -17 18
-13 2 -18 -3 -18 -18z"/>
<path d="M4566 1484 c-9 -23 -8 -24 11 -17 14 5 15 1 9 -35 -4 -26 -2 -42 4
-42 5 0 10 8 11 18 0 9 2 28 4 42 4 40 -26 67 -39 34z"/>
<path d="M4465 1480 c-3 -5 -1 -10 4 -10 6 0 11 5 11 10 0 6 -2 10 -4 10 -3 0
-8 -4 -11 -10z"/>
<path d="M4634 1465 c-3 -8 -4 -20 -2 -27 3 -7 7 -1 10 15 6 29 1 36 -8 12z"/>
<path d="M4498 1448 c-3 -7 -2 -22 3 -33 4 -11 8 -14 8 -7 1 7 4 11 9 9 4 -3
16 4 27 15 17 16 17 18 2 12 -9 -3 -23 -1 -31 5 -10 9 -15 8 -18 -1z"/>
<path d="M4556 1414 c-4 -9 -4 -19 -1 -22 2 -3 7 3 11 12 4 9 4 19 1 22 -2 3
-7 -3 -11 -12z"/>
<path d="M4612 1400 c0 -14 2 -19 5 -12 2 6 2 18 0 25 -3 6 -5 1 -5 -13z"/>
<path d="M9448 1403 c12 -2 32 -2 45 0 12 2 2 4 -23 4 -25 0 -35 -2 -22 -4z"/>
<path d="M4530 1370 c0 -9 7 -26 16 -38 8 -12 12 -27 8 -34 -4 -6 -3 -8 4 -4
6 3 12 0 14 -9 6 -28 26 0 32 45 5 41 5 42 -5 13 -12 -40 -22 -44 -13 -5 4 15
3 24 -1 20 -5 -4 -15 -2 -23 5 -13 10 -14 8 -9 -13 6 -20 4 -19 -8 5 -8 17
-14 23 -15 15z"/>
<path d="M10921 1373 c-1 -7 -30 -44 -66 -82 -77 -82 -86 -102 -14 -34 62 59
92 99 86 116 -4 9 -6 9 -6 0z"/>
<path d="M6580 1359 c0 -5 14 -24 30 -43 51 -58 234 -136 400 -171 64 -14 26
2 -85 34 -141 41 -244 91 -300 145 -25 23 -45 39 -45 35z"/>
<path d="M7068 1133 c7 -3 16 -2 19 1 4 3 -2 6 -13 5 -11 0 -14 -3 -6 -6z"/>
<path d="M9197 1130 c51 -21 67 -117 25 -152 -42 -36 -74 -32 -98 14 -19 36
-11 77 21 112 13 14 20 26 15 26 -22 0 -60 -63 -60 -99 0 -85 73 -119 131 -62
24 24 29 38 29 76 0 37 -5 51 -26 70 -15 14 -34 25 -43 24 -11 0 -9 -3 6 -9z"/>
<path d="M10828 1093 c7 -3 16 -2 19 1 4 3 -2 6 -13 5 -11 0 -14 -3 -6 -6z"/>
<path d="M10778 1083 c6 -2 18 -2 25 0 6 3 1 5 -13 5 -14 0 -19 -2 -12 -5z"/>
<path d="M10705 1070 c-25 -11 1 -11 35 0 20 6 21 8 5 8 -11 0 -29 -3 -40 -8z"/>
<path d="M5377 913 c-3 -65 0 -157 6 -205 10 -76 14 -88 30 -88 14 0 17 5 12
18 -25 66 -33 141 -28 263 4 85 3 129 -4 129 -6 0 -13 -47 -16 -117z"/>
<path d="M7080 1010 c-25 -11 -39 -19 -32 -19 16 -1 82 26 82 33 0 4 -1 6 -2
5 -2 -1 -23 -9 -48 -19z"/>
<path d="M6998 983 c6 -2 18 -2 25 0 6 3 1 5 -13 5 -14 0 -19 -2 -12 -5z"/>
<path d="M6958 973 c7 -3 16 -2 19 1 4 3 -2 6 -13 5 -11 0 -14 -3 -6 -6z"/>
<path d="M3440 849 c0 -15 143 -158 202 -203 20 -15 45 -26 54 -24 13 2 6 11
-26 32 -24 16 -86 69 -137 119 -51 49 -93 84 -93 76z"/>
<path d="M4570 692 c0 -7 -19 -25 -42 -42 l-41 -30 40 0 c36 0 42 4 53 31 10
22 10 33 1 42 -8 8 -11 8 -11 -1z"/>
</g>
</svg>
